<?xml version="1.0" encoding="UTF-8" standalone="no"?>
<!DOCTYPE svg PUBLIC "-//W3C//DTD SVG 1.1//EN" "http://www.w3.org/Graphics/SVG/1.1/DTD/svg11.dtd">
<svg xmlns="http://www.w3.org/2000/svg" version="1.1" viewBox="0.00 0.00 250.00 256.00">
<g stroke-width="2.00" fill="none" stroke-linecap="butt">
<path stroke="#818181" vector-effect="non-scaling-stroke" d="
  M 147.41 142.85
  Q 151.10 141.59 153.65 138.69
  Q 153.99 138.31 154.25 138.74
  Q 156.26 141.98 159.40 144.15
  A 0.74 0.74 0.0 0 0 160.29 144.12
  Q 164.73 140.53 168.55 136.31
  C 171.39 133.18 165.49 129.38 163.47 128.27
  Q 163.01 128.01 163.20 127.52
  L 164.54 124.08
  Q 164.72 123.63 165.16 123.85
  L 169.64 126.10
  A 1.58 1.57 -67.3 0 0 171.85 125.19
  L 175.39 114.44
  A 1.39 1.38 9.6 0 0 174.10 112.63
  L 166.76 112.45
  A 0.43 0.43 0.0 0 1 166.34 112.01
  L 166.40 106.79
  A 0.55 0.55 0.0 0 1 166.95 106.25
  L 176.06 106.25
  A 0.53 0.52 -2.5 0 0 176.59 105.68
  L 175.78 94.89
  A 1.44 1.43 -6.0 0 0 174.15 93.58
  L 166.77 94.63
  A 1.41 1.41 0.0 0 1 165.55 94.20
  L 163.39 91.94
  A 0.74 0.74 0.0 0 1 163.36 90.95
  C 167.00 86.63 174.87 85.03 167.59 78.48
  Q 167.15 78.09 167.67 77.81
  Q 172.81 75.01 177.87 71.90
  C 182.03 69.35 183.90 64.27 185.29 59.89
  C 188.06 51.14 186.36 41.90 177.86 37.36
  Q 174.79 35.73 165.77 34.27
  C 154.74 32.48 143.86 29.33 133.12 27.60
  C 122.12 25.84 114.25 24.58 105.24 19.44
  C 103.54 18.46 102.11 15.80 99.40 16.88
  A 1.33 1.33 0.0 0 0 98.58 18.27
  C 100.15 31.16 109.70 38.42 119.83 44.57
  C 124.36 47.32 133.38 52.38 132.80 57.91
  Q 132.73 58.61 132.03 58.60
  L 119.48 58.47
  A 1.61 1.60 0.0 0 0 117.85 60.09
  Q 117.88 63.59 118.52 66.73
  C 119.00 69.12 118.06 70.64 115.50 70.20
  Q 115.05 70.12 114.86 69.71
  L 112.14 63.68
  A 2.40 2.39 72.7 0 0 109.52 62.30
  L 105.81 62.99
  Q 105.34 63.07 105.29 62.60
  C 104.37 54.24 103.84 47.92 97.07 42.49
  C 91.69 38.18 80.86 35.87 73.37 33.51
  C 63.03 30.25 53.09 25.39 43.07 21.17
  Q 37.95 19.01 26.27 10.92
  Q 25.84 10.62 25.43 10.96
  C 17.50 17.53 23.16 32.87 28.11 39.45
  C 28.96 40.58 30.26 41.02 31.44 41.79
  Q 31.91 42.10 31.65 42.59
  C 28.57 48.53 38.76 57.51 43.14 60.05
  A 1.79 1.76 -75.2 0 1 44.02 61.59
  L 43.99 65.19
  Q 43.99 65.68 44.27 66.08
  Q 48.86 72.62 55.36 77.26
  Q 55.84 77.60 55.84 78.18
  C 55.82 84.45 59.42 86.30 64.89 90.04
  Q 70.32 93.76 76.51 96.35
  Q 76.94 96.53 76.83 96.98
  L 74.85 104.98
  A 1.67 1.67 0.0 0 0 76.55 107.05
  L 85.51 106.68
  A 0.49 0.49 0.0 0 1 86.01 107.27
  L 85.22 111.52
  A 0.77 0.77 0.0 0 1 84.51 112.15
  C 82.16 112.30 74.16 110.87 75.26 115.24
  Q 76.85 121.58 79.93 127.32
  A 2.30 2.30 0.0 0 0 82.72 128.41
  L 88.29 126.46
  A 0.70 0.70 0.0 0 1 89.10 126.73
  L 92.54 131.90
  A 0.68 0.68 0.0 0 1 92.33 132.86
  C 90.64 133.89 83.55 137.23 87.23 139.80
  Q 92.03 143.16 94.81 147.87
  A 1.44 1.44 0.0 0 0 97.12 148.10
  L 102.03 142.62
  Q 102.41 142.20 102.91 142.44
  L 107.62 144.66
  Q 108.17 144.92 107.89 145.46
  L 104.87 151.36
  A 0.65 0.65 0.0 0 0 105.21 152.26
  Q 111.97 154.96 118.95 157.02
  Q 120.38 157.44 121.03 157.10
  Q 121.97 156.60 122.21 154.99
  Q 122.58 152.55 122.79 150.02
  Q 122.82 149.64 123.20 149.62
  L 132.69 149.09
  A 0.97 0.97 0.0 0 1 133.72 149.99
  L 134.18 155.84
  A 1.81 1.81 0.0 0 0 136.64 157.38
  L 151.16 151.70
  Q 151.78 151.46 151.42 150.91
  L 149.21 147.46
  Q 148.65 146.58 149.63 146.91
  L 171.94 154.27
  Q 172.45 154.43 172.05 154.79
  Q 165.78 160.43 159.30 165.82
  C 157.16 167.60 158.10 171.20 158.65 173.57
  A 0.68 0.68 0.0 0 1 158.43 174.25
  L 154.26 177.70
  A 0.25 0.25 0.0 0 1 153.85 177.52
  L 153.51 173.33
  Q 153.46 172.71 152.85 172.66
  C 144.93 171.98 147.55 179.34 147.49 183.66
  A 0.86 0.85 79.7 0 1 146.96 184.44
  Q 143.69 185.77 141.48 188.49
  Q 140.86 189.25 140.89 188.27
  C 140.94 185.73 142.79 173.93 136.22 177.61
  A 1.17 1.16 -13.9 0 0 135.64 178.56
  L 135.15 188.57
  A 0.97 0.97 0.0 0 1 134.18 189.50
  L 130.02 189.50
  Q 129.56 189.50 129.53 189.04
  C 129.15 183.84 129.46 176.61 122.06 177.11
  C 114.62 177.61 113.19 181.97 114.41 188.65
  A 0.51 0.51 0.0 0 1 113.91 189.24
  L 103.28 189.25
  Q 102.49 189.25 102.47 188.46
  L 102.17 175.42
  Q 102.16 174.97 101.86 174.65
  Q 91.44 163.44 79.49 153.78
  A 1.97 1.96 -39.4 0 1 79.82 150.51
  Q 84.54 148.03 89.99 146.92
  Q 90.87 146.75 90.94 146.12
  A 0.74 0.74 0.0 0 0 90.02 145.31
  C 85.23 146.51 78.43 147.54 76.95 152.94
  Q 76.79 153.51 77.25 153.88
  Q 89.66 163.89 100.60 175.48
  Q 100.96 175.86 100.96 176.39
  L 100.97 189.83
  Q 100.97 190.28 101.41 190.34
  Q 107.78 191.22 114.14 190.63
  C 118.85 190.19 123.25 187.28 127.40 185.02
  Q 127.98 184.70 127.99 185.37
  L 128.01 189.63
  Q 128.01 191.00 129.38 191.00
  L 135.03 191.00
  Q 136.55 191.00 136.61 189.48
  L 137.02 179.77
  A 1.25 1.25 0.0 0 1 138.23 178.57
  Q 138.97 178.55 139.35 179.22
  Q 139.56 179.61 139.54 180.31
  Q 139.37 184.96 139.24 189.46
  A 1.01 1.01 0.0 0 0 140.25 190.50
  L 140.95 190.50
  Q 141.50 190.50 141.85 190.08
  Q 144.30 187.13 147.85 185.67
  A 1.94 1.94 0.0 0 0 149.06 183.73
  L 148.57 176.49
  Q 148.54 176.02 148.81 175.64
  Q 149.85 174.17 151.70 174.24
  Q 152.14 174.26 152.18 174.70
  L 152.51 179.61
  A 0.74 0.74 0.0 0 0 153.73 180.13
  L 159.61 175.13
  Q 159.97 174.83 159.97 174.36
  C 160.02 171.29 158.26 168.71 161.20 166.19
  Q 167.97 160.36 174.42 154.80
  A 0.81 0.81 0.0 0 0 174.09 153.41
  C 165.61 151.20 159.69 148.10 149.40 145.88
  Q 148.89 145.77 148.61 145.34
  L 147.27 143.27
  Q 147.07 142.97 147.41 142.85"
/>
<path stroke="#818181" vector-effect="non-scaling-stroke" d="
  M 135.81 165.94
  Q 123.74 162.97 85.99 151.80
  Q 84.99 151.50 84.71 152.31
  A 0.55 0.55 0.0 0 0 85.07 153.02
  Q 109.37 160.16 133.97 167.03
  C 139.75 168.65 141.44 165.32 146.13 163.59
  Q 156.54 159.75 166.36 154.53
  Q 167.42 153.97 166.69 153.25
  A 0.57 0.57 0.0 0 0 166.04 153.15
  Q 155.59 158.63 144.65 162.57
  C 141.62 163.66 139.26 166.79 135.81 165.94"
/>
<path stroke="#818181" vector-effect="non-scaling-stroke" d="
  M 140.57 172.97
  C 132.31 173.25 122.73 170.58 113.39 168.03
  C 109.58 167.00 105.54 166.55 101.57 165.78
  A 0.72 0.72 0.0 0 1 101.22 165.60
  L 93.85 159.12
  A 0.33 0.33 0.0 0 0 93.30 159.32
  L 93.25 159.71
  Q 93.18 160.23 93.55 160.60
  C 96.15 163.23 99.48 166.98 103.29 167.57
  C 115.34 169.42 127.95 174.23 139.18 174.70
  C 142.51 174.84 144.28 172.13 146.84 170.99
  Q 150.34 169.42 153.82 167.78
  Q 154.25 167.58 154.25 167.09
  Q 154.25 166.94 154.25 166.79
  Q 154.27 166.25 153.76 166.42
  Q 147.12 168.60 141.54 172.63
  Q 141.10 172.95 140.57 172.97"
/>
<path stroke="#818181" vector-effect="non-scaling-stroke" d="
  M 86.70 95.25
  Q 88.07 96.41 87.25 97.17
  Q 86.88 97.52 86.16 97.52
  Q 83.34 97.53 80.62 96.80
  Q 80.02 96.63 79.85 97.23
  L 77.97 103.67
  Q 77.79 104.29 78.43 104.27
  L 87.19 104.08
  A 1.47 1.47 0.0 0 1 88.69 105.48
  Q 88.88 109.43 87.57 113.14
  A 2.42 2.42 0.0 0 1 85.29 114.75
  L 78.69 114.75
  A 0.65 0.64 79.4 0 0 78.09 115.63
  L 81.73 125.08
  A 0.70 0.70 0.0 0 0 82.60 125.49
  L 88.90 123.47
  A 0.87 0.87 0.0 0 1 89.75 123.66
  Q 92.80 126.49 94.76 130.29
  C 97.35 135.33 92.32 135.18 90.02 137.73
  Q 89.62 138.17 90.06 138.56
  Q 93.51 141.64 95.87 145.65
  Q 96.19 146.19 96.59 145.71
  C 98.06 143.93 100.69 138.27 103.36 139.65
  C 105.86 140.94 108.16 141.94 110.20 144.06
  A 0.91 0.90 -52.9 0 1 110.34 145.11
  L 107.49 150.52
  A 0.51 0.50 23.1 0 0 107.78 151.23
  L 119.79 155.19
  Q 120.43 155.40 120.45 154.73
  L 120.68 148.06
  A 0.43 0.42 -90.0 0 1 121.08 147.65
  L 134.00 146.92
  A 1.32 1.31 84.7 0 1 135.39 148.08
  L 136.21 154.94
  Q 136.27 155.42 136.72 155.24
  L 147.98 150.71
  Q 148.52 150.49 148.29 149.96
  L 145.19 142.76
  A 0.54 0.53 -29.0 0 1 145.38 142.11
  L 153.88 136.27
  A 0.82 0.81 -36.8 0 1 154.97 136.42
  L 159.15 141.55
  Q 159.59 142.08 160.09 141.62
  L 167.29 134.96
  Q 167.64 134.64 167.33 134.27
  Q 164.62 130.98 160.70 129.37
  A 0.52 0.52 0.0 0 1 160.42 128.69
  L 163.02 122.24
  A 1.43 1.43 0.0 0 1 164.99 121.50
  L 169.66 123.88
  Q 170.25 124.18 170.36 123.53
  Q 171.17 119.07 173.38 115.11
  Q 173.73 114.50 173.03 114.50
  L 165.30 114.49
  A 0.79 0.78 -1.1 0 1 164.51 113.74
  L 164.17 105.45
  A 0.84 0.84 0.0 0 1 164.96 104.58
  L 174.15 104.11
  Q 174.47 104.09 174.44 103.78
  L 173.78 96.20
  Q 173.73 95.67 173.20 95.75
  L 165.24 96.99
  Q 164.82 97.06 164.47 96.82
  Q 161.84 95.00 160.46 92.07
  A 2.25 2.24 53.2 0 1 160.81 89.61
  Q 163.85 86.19 167.93 84.01
  A 0.66 0.66 0.0 0 0 168.10 82.97
  L 163.98 78.72
  Q 163.53 78.26 162.96 78.55
  L 154.86 82.52
  A 0.93 0.92 -41.6 0 1 153.97 82.47
  L 149.00 79.29
  A 2.26 2.26 0.0 0 1 148.32 76.15
  L 152.36 69.99
  A 0.58 0.57 30.9 0 0 152.15 69.17
  L 144.04 64.77
  Q 143.54 64.50 143.30 65.01
  L 140.24 71.64
  A 2.07 2.06 -70.5 0 1 137.87 72.78
  L 132.70 71.51
  A 1.41 1.40 -78.2 0 1 131.65 69.90
  L 133.08 61.94
  Q 133.17 61.43 132.66 61.41
  L 120.89 60.98
  Q 120.45 60.97 120.48 61.40
  Q 120.69 64.48 121.29 67.49
  C 122.24 72.23 117.15 73.56 113.59 72.72
  Q 113.12 72.61 112.94 72.16
  L 110.14 65.35
  A 0.70 0.70 0.0 0 0 109.32 64.94
  L 106.43 65.71
  Q 105.75 65.90 106.04 66.54
  L 109.39 74.15
  A 0.75 0.75 0.0 0 1 108.67 75.20
  L 107.41 75.14
  A 0.41 0.39 -14.3 0 1 107.09 74.96
  Q 103.18 69.08 102.79 64.43
  C 101.66 50.71 99.47 44.50 85.89 40.15
  C 76.78 37.22 67.77 34.72 58.95 30.83
  C 48.06 26.03 37.77 21.83 27.82 15.28
  Q 24.86 13.34 24.64 16.87
  C 24.36 21.33 24.17 24.98 25.86 29.17
  C 26.94 31.82 28.51 36.13 30.66 38.03
  C 32.32 39.49 35.67 40.02 34.15 43.20
  C 31.73 48.22 42.22 56.51 46.02 58.51
  A 2.39 2.38 22.1 0 1 47.20 61.28
  L 46.44 63.89
  A 0.97 0.96 -55.1 0 0 46.58 64.70
  Q 51.15 71.15 57.81 75.45
  C 60.67 77.30 57.13 80.28 60.12 82.91
  C 67.49 89.43 75.43 93.91 85.62 94.80
  A 2.00 1.99 -22.2 0 1 86.70 95.25"
/>
<path stroke="#818181" vector-effect="non-scaling-stroke" d="
  M 107.25 30.99
  A 0.30 0.30 0.0 0 1 107.71 30.72
  Q 113.79 34.60 119.33 36.82
  C 124.57 38.93 131.09 38.99 136.96 40.24
  C 138.39 40.54 138.92 41.51 138.41 42.86
  A 0.63 0.63 0.0 0 1 137.68 43.26
  C 130.41 41.61 123.02 42.09 116.14 38.48
  Q 116.00 38.41 115.93 38.46
  Q 115.85 38.52 115.76 38.69
  A 0.34 0.34 0.0 0 0 115.90 39.16
  Q 124.53 43.56 131.97 49.76
  Q 132.35 50.09 132.76 49.80
  Q 133.74 49.12 134.50 49.25
  Q 141.29 50.38 148.09 51.36
  C 149.36 51.55 150.62 52.11 151.20 53.18
  A 0.91 0.91 0.0 0 1 150.26 54.51
  L 134.79 52.20
  Q 134.24 52.11 134.42 52.64
  Q 137.08 60.38 134.78 68.30
  Q 134.65 68.75 135.03 69.03
  Q 136.41 70.02 137.62 69.54
  Q 138.55 69.16 139.14 67.48
  Q 140.18 64.51 141.98 61.80
  A 1.50 1.49 -58.1 0 1 143.97 61.33
  L 155.68 68.06
  A 1.23 1.23 0.0 0 1 156.07 69.85
  L 151.45 76.26
  Q 150.78 77.20 151.78 77.78
  L 154.39 79.30
  A 0.79 0.79 0.0 0 0 155.12 79.32
  L 160.50 76.62
  Q 160.85 76.45 160.98 76.08
  L 161.73 74.06
  Q 162.00 73.31 162.61 73.84
  L 165.26 76.12
  Q 165.59 76.40 165.94 76.14
  Q 169.38 73.60 173.18 71.66
  C 179.57 68.41 181.19 64.40 183.15 57.86
  C 186.53 46.58 179.62 38.82 168.69 37.32
  Q 154.43 35.37 140.55 31.62
  Q 136.61 30.56 131.85 30.07
  C 121.51 29.01 110.36 26.51 101.90 20.28
  Q 101.31 19.84 101.47 20.56
  Q 102.75 26.47 106.66 31.11
  Q 106.85 31.33 107.12 31.23
  Q 107.25 31.18 107.25 30.99"
/>
<path stroke="#818181" vector-effect="non-scaling-stroke" d="
  M 116.76 188.66
  L 127.83 183.43
  A 0.30 0.30 0.0 0 0 127.97 183.03
  L 127.61 182.25
  A 6.50 6.40 64.7 0 0 119.04 179.11
  L 119.01 179.13
  A 6.50 6.40 64.7 0 0 116.00 187.74
  L 116.36 188.52
  A 0.30 0.30 0.0 0 0 116.76 188.66"
/>
<path stroke="#818181" vector-effect="non-scaling-stroke" d="
  M 69.78 50.23
  C 60.73 51.61 51.38 47.68 42.79 44.18
  Q 41.06 43.48 39.20 44.78
  A 0.84 0.84 0.0 0 0 38.86 45.65
  C 41.50 57.70 70.18 61.48 79.50 61.87
  C 80.71 61.92 82.23 62.48 83.47 62.75
  A 0.62 0.62 0.0 0 1 83.96 63.27
  C 84.70 68.63 70.95 65.39 67.76 64.61
  Q 60.37 62.81 54.75 61.76
  Q 52.53 61.34 51.70 63.15
  A 1.15 1.15 0.0 0 0 51.65 63.99
  C 53.48 69.56 61.02 72.40 66.18 73.09
  Q 72.99 74.01 85.74 75.35
  Q 88.39 75.63 90.25 77.03
  A 0.59 0.59 0.0 0 1 90.03 78.08
  C 81.75 80.04 72.77 78.55 64.57 76.61
  A 1.65 1.64 -7.5 0 0 62.74 78.99
  C 63.77 80.90 65.38 85.59 67.57 86.43
  Q 82.35 92.10 97.54 93.93
  A 1.00 1.00 0.0 0 1 97.61 95.91
  Q 95.09 96.39 92.77 97.09
  C 90.65 97.72 90.84 99.52 92.30 100.74
  Q 101.54 108.37 113.56 110.33
  A 0.81 0.79 -2.1 0 1 114.20 110.91
  Q 116.58 119.75 124.91 120.28
  C 139.81 121.23 139.36 100.07 126.59 99.47
  Q 122.26 99.26 118.10 100.52
  Q 117.66 100.66 117.26 100.45
  Q 111.56 97.53 109.53 94.76
  Q 103.90 87.12 102.07 75.00
  C 100.69 65.88 98.31 48.73 86.74 45.51
  C 77.25 42.86 67.32 40.75 58.18 37.04
  C 52.91 34.90 47.62 33.44 42.76 29.79
  C 38.65 26.70 33.92 24.94 29.86 21.71
  A 1.45 1.45 0.0 0 0 27.51 22.82
  C 27.46 25.69 26.96 28.48 28.64 31.03
  C 35.67 41.70 52.39 44.72 69.82 49.51
  A 0.37 0.37 0.0 0 1 69.78 50.23"
/>
<path stroke="#818181" vector-effect="non-scaling-stroke" d="
  M 126.45 121.09
  C 118.11 121.11 116.01 119.85 112.94 112.03
  A 0.82 0.81 79.7 0 0 112.20 111.51
  Q 104.96 111.28 97.97 109.49
  Q 96.57 109.13 95.99 109.26
  Q 94.70 109.53 94.75 111.26
  C 94.95 119.09 98.43 125.95 103.41 131.78
  C 115.24 145.59 136.85 142.73 148.80 131.03
  C 156.21 123.78 157.23 116.05 156.23 106.18
  C 155.13 95.47 151.11 88.48 142.20 82.57
  Q 135.31 77.99 127.70 78.75
  C 120.84 79.43 114.99 79.33 109.21 82.82
  Q 108.82 83.05 108.68 83.49
  C 107.67 86.73 111.99 92.74 113.64 95.65
  C 115.65 99.17 118.03 97.27 120.80 97.25
  C 126.64 97.21 135.32 96.82 137.28 104.19
  C 137.94 106.65 137.41 112.84 136.39 115.00
  Q 133.52 121.07 126.45 121.09"
/>
<path stroke="#818181" vector-effect="non-scaling-stroke" d="
  M 71.81 52.24
  C 63.97 56.02 50.21 50.50 42.84 46.99
  A 0.19 0.19 0.0 0 0 42.63 47.29
  C 52.07 56.57 67.65 58.17 82.49 59.59
  C 88.81 60.19 88.22 67.85 82.02 68.74
  C 73.41 69.97 64.06 66.60 55.74 64.91
  Q 54.86 64.73 55.53 65.33
  Q 59.85 69.24 65.45 70.04
  Q 73.84 71.23 86.93 72.57
  Q 88.71 72.75 92.19 74.66
  Q 92.61 74.89 92.80 75.33
  C 97.33 85.75 70.55 80.81 67.00 79.88
  Q 66.21 79.68 66.58 80.41
  L 68.02 83.28
  A 1.43 1.37 86.1 0 0 68.78 83.97
  Q 83.47 89.35 99.02 91.41
  C 103.15 91.95 101.56 99.37 95.45 99.01
  Q 94.49 98.95 95.25 99.54
  Q 104.19 106.43 115.47 107.59
  Q 116.43 107.68 116.61 108.64
  C 119.77 124.96 139.40 116.15 131.95 105.48
  C 128.91 101.13 122.42 101.88 118.12 103.88
  Q 117.65 104.10 117.19 103.85
  C 112.56 101.32 108.67 98.75 105.85 94.05
  C 99.72 83.80 99.23 73.64 96.91 62.77
  C 95.79 57.56 91.50 49.73 86.01 48.24
  Q 74.86 45.21 63.75 42.03
  C 59.20 40.73 54.67 38.64 50.08 36.97
  Q 46.80 35.77 43.84 33.78
  Q 37.53 29.54 30.76 26.06
  Q 30.16 25.75 30.26 26.41
  C 31.18 32.50 37.82 36.71 43.26 38.48
  Q 56.94 42.94 70.75 46.98
  Q 72.45 47.48 73.01 48.50
  A 2.71 2.71 0.0 0 1 71.81 52.24"
/>
<path stroke="#818181" vector-effect="non-scaling-stroke" d="
  M 102.25 124.79
  L 100.78 122.27
  A 0.23 0.23 0.0 0 0 100.36 122.47
  C 101.45 125.44 104.48 128.77 106.61 131.11
  C 117.51 143.03 141.40 139.26 149.91 126.08
  C 153.85 119.99 153.92 114.79 153.39 107.05
  C 152.63 95.95 147.48 87.95 137.25 83.09
  C 131.38 80.30 117.21 81.62 111.08 84.86
  Q 110.97 84.92 111.02 85.10
  Q 111.04 85.20 111.14 85.17
  L 120.47 82.61
  A 2.02 2.01 78.1 0 1 123.00 84.27
  L 124.27 93.16
  A 1.82 1.82 0.0 0 0 127.85 93.29
  L 129.91 83.92
  A 1.45 1.45 0.0 0 1 131.88 82.90
  Q 135.91 84.60 139.29 86.46
  C 144.33 89.22 139.09 94.74 136.38 96.69
  Q 135.91 97.03 136.32 97.44
  L 137.14 98.26
  A 0.67 0.67 0.0 0 0 138.02 98.33
  L 145.68 92.67
  Q 147.20 91.55 147.99 93.27
  L 151.82 101.67
  A 1.94 1.94 0.0 0 1 150.60 104.34
  L 141.08 107.11
  A 0.73 0.73 0.0 0 0 140.56 107.75
  L 140.34 110.81
  Q 140.31 111.18 140.68 111.21
  C 144.40 111.57 147.68 112.59 151.31 113.35
  C 155.45 114.23 149.98 122.62 148.41 124.19
  Q 147.99 124.62 147.47 124.31
  L 138.07 118.80
  Q 137.71 118.59 137.41 118.89
  L 134.63 121.67
  Q 134.40 121.90 134.73 121.94
  Q 135.92 122.08 136.63 123.10
  Q 139.09 126.66 141.17 129.58
  A 2.35 2.35 0.0 0 1 140.54 132.92
  Q 136.75 135.39 132.27 136.44
  A 1.79 1.79 0.0 0 1 130.13 135.14
  C 129.25 131.70 127.32 127.27 127.92 124.04
  Q 128.00 123.61 127.57 123.61
  L 122.90 123.58
  Q 122.74 123.58 122.84 123.71
  Q 123.75 124.96 123.32 127.57
  Q 122.55 132.30 121.70 134.95
  Q 121.11 136.80 119.38 136.23
  C 116.16 135.18 113.25 134.47 110.30 132.80
  A 1.20 1.20 0.0 0 1 109.88 131.09
  L 115.63 122.37
  Q 115.90 121.96 115.52 121.64
  L 113.43 119.87
  Q 113.02 119.53 112.59 119.83
  L 104.59 125.31
  A 1.64 1.64 0.0 0 1 102.25 124.79"
/>
<path stroke="#818181" vector-effect="non-scaling-stroke" d="
  M 120.87 85.48
  A 0.59 0.59 0.0 0 0 120.14 84.99
  L 112.96 86.90
  A 0.59 0.59 0.0 0 0 112.59 87.74
  L 116.01 94.39
  A 0.59 0.59 0.0 0 0 116.61 94.70
  L 121.49 94.13
  A 0.59 0.59 0.0 0 0 122.01 93.46
  L 120.87 85.48"
/>
<path stroke="#818181" vector-effect="non-scaling-stroke" d="
  M 139.41 89.00
  L 132.47 85.44
  A 0.23 0.23 0.0 0 0 132.16 85.54
  L 132.10 85.65
  A 9.04 4.12 -62.8 0 0 131.63 95.58
  L 131.65 95.58
  A 9.04 4.12 -62.8 0 0 139.45 89.43
  L 139.51 89.31
  A 0.23 0.23 0.0 0 0 139.41 89.00"
/>
<path stroke="#818181" vector-effect="non-scaling-stroke" d="
  M 149.67 101.56
  L 146.52 95.49
  A 0.42 0.42 0.0 0 0 145.96 95.31
  L 145.67 95.46
  A 8.76 3.42 -27.4 0 0 139.47 102.52
  L 139.86 103.27
  A 8.76 3.42 -27.4 0 0 149.21 102.27
  L 149.49 102.13
  A 0.42 0.42 0.0 0 0 149.67 101.56"
/>
<path stroke="#818181" vector-effect="non-scaling-stroke" d="
  M 102.01 113.19
  L 98.21 112.53
  A 0.47 0.47 0.0 0 0 97.67 113.04
  L 98.21 118.00
  A 0.28 0.28 0.0 0 0 98.76 117.99
  Q 98.82 117.13 98.50 116.33
  A 1.02 1.01 -38.1 0 1 98.62 115.37
  Q 99.84 113.64 101.95 113.72
  A 0.27 0.27 0.0 0 0 102.01 113.19"
/>
<path stroke="#818181" vector-effect="non-scaling-stroke" d="
  M 141.46 118.76
  L 146.89 121.36
  A 1.47 1.47 0.0 0 0 148.85 120.66
  L 149.79 118.69
  A 2.91 2.71 -64.5 0 0 148.60 114.90
  L 145.40 113.38
  A 2.91 2.71 -64.5 0 0 141.71 114.84
  L 140.77 116.80
  A 1.47 1.47 0.0 0 0 141.46 118.76"
/>
<path stroke="#818181" vector-effect="non-scaling-stroke" d="
  M 104.31 122.69
  L 110.09 119.14
  A 0.80 0.80 0.0 0 0 110.35 118.04
  L 108.79 115.50
  A 3.28 3.16 -31.6 0 0 104.34 114.53
  L 102.79 115.48
  A 3.28 3.16 -31.6 0 0 101.65 119.89
  L 103.21 122.43
  A 0.80 0.80 0.0 0 0 104.31 122.69"
/>
<path stroke="#818181" vector-effect="non-scaling-stroke" d="
  M 134.99 124.32
  A 0.77 0.77 0.0 0 0 134.15 124.01
  L 130.34 125.02
  A 0.77 0.77 0.0 0 0 129.80 125.97
  L 131.93 133.71
  A 0.77 0.77 0.0 0 0 132.98 134.21
  L 138.87 131.68
  A 0.77 0.77 0.0 0 0 139.21 130.54
  L 134.99 124.32"
/>
<path stroke="#818181" vector-effect="non-scaling-stroke" d="
  M 112.87 131.68
  L 119.26 134.19
  A 0.29 0.29 0.0 0 0 119.63 134.02
  L 119.69 133.88
  A 8.14 2.23 -68.6 0 0 120.58 125.49
  L 117.81 124.40
  A 8.14 2.23 -68.6 0 0 112.76 131.17
  L 112.71 131.31
  A 0.29 0.29 0.0 0 0 112.87 131.68"
/>
</g>
<path fill="#ffffff" d="
  M 29.11 43.06
  C 24.32 39.15 21.51 30.12 20.25 24.22
  Q 18.61 16.53 23.78 11.20
  C 26.55 8.35 27.36 10.85 29.61 12.29
  C 40.57 19.28 49.98 22.79 60.67 27.52
  Q 67.54 30.57 74.53 32.71
  C 90.46 37.58 106.10 40.62 106.06 60.41
  A 1.10 1.09 -6.8 0 0 107.42 61.48
  Q 112.32 60.26 114.22 64.94
  C 114.66 66.02 114.65 67.82 115.65 69.02
  A 0.81 0.80 58.7 0 0 116.57 69.25
  C 120.77 67.49 111.41 56.84 121.72 57.51
  Q 126.44 57.81 130.55 57.76
  A 1.48 1.47 73.3 0 0 131.77 55.49
  C 127.28 48.47 119.73 47.30 113.59 42.38
  C 105.79 36.13 95.41 26.06 98.28 15.10
  Q 98.41 14.60 98.90 14.75
  C 101.70 15.59 104.39 17.51 106.26 18.43
  Q 117.95 24.15 130.70 26.21
  C 144.20 28.38 157.87 31.97 170.48 33.50
  C 182.96 35.01 188.93 43.51 188.12 55.67
  C 187.67 62.57 183.57 68.54 178.32 72.74
  C 175.96 74.62 172.32 75.81 169.61 78.33
  Q 169.22 78.69 169.48 79.15
  C 170.40 80.80 171.48 81.76 173.54 81.76
  Q 201.91 81.74 229.84 81.76
  A 0.70 0.70 0.0 0 1 230.42 82.86
  L 125.37 237.23
  Q 124.91 237.91 124.45 237.23
  L 20.05 82.86
  A 0.72 0.71 -17.2 0 1 20.64 81.75
  L 53.67 81.64
  Q 54.59 81.64 55.02 80.83
  C 55.95 79.07 54.48 77.62 53.02 76.59
  Q 47.23 72.52 43.44 66.57
  A 1.36 1.31 32.1 0 1 43.23 65.73
  Q 43.43 63.54 42.67 61.50
  A 1.56 1.56 0.0 0 0 42.06 60.74
  C 35.41 56.33 31.47 52.07 29.62 43.88
  Q 29.51 43.39 29.11 43.06
  Z
  M 147.41 142.85
  Q 151.10 141.59 153.65 138.69
  Q 153.99 138.31 154.25 138.74
  Q 156.26 141.98 159.40 144.15
  A 0.74 0.74 0.0 0 0 160.29 144.12
  Q 164.73 140.53 168.55 136.31
  C 171.39 133.18 165.49 129.38 163.47 128.27
  Q 163.01 128.01 163.20 127.52
  L 164.54 124.08
  Q 164.72 123.63 165.16 123.85
  L 169.64 126.10
  A 1.58 1.57 -67.3 0 0 171.85 125.19
  L 175.39 114.44
  A 1.39 1.38 9.6 0 0 174.10 112.63
  L 166.76 112.45
  A 0.43 0.43 0.0 0 1 166.34 112.01
  L 166.40 106.79
  A 0.55 0.55 0.0 0 1 166.95 106.25
  L 176.06 106.25
  A 0.53 0.52 -2.5 0 0 176.59 105.68
  L 175.78 94.89
  A 1.44 1.43 -6.0 0 0 174.15 93.58
  L 166.77 94.63
  A 1.41 1.41 0.0 0 1 165.55 94.20
  L 163.39 91.94
  A 0.74 0.74 0.0 0 1 163.36 90.95
  C 167.00 86.63 174.87 85.03 167.59 78.48
  Q 167.15 78.09 167.67 77.81
  Q 172.81 75.01 177.87 71.90
  C 182.03 69.35 183.90 64.27 185.29 59.89
  C 188.06 51.14 186.36 41.90 177.86 37.36
  Q 174.79 35.73 165.77 34.27
  C 154.74 32.48 143.86 29.33 133.12 27.60
  C 122.12 25.84 114.25 24.58 105.24 19.44
  C 103.54 18.46 102.11 15.80 99.40 16.88
  A 1.33 1.33 0.0 0 0 98.58 18.27
  C 100.15 31.16 109.70 38.42 119.83 44.57
  C 124.36 47.32 133.38 52.38 132.80 57.91
  Q 132.73 58.61 132.03 58.60
  L 119.48 58.47
  A 1.61 1.60 0.0 0 0 117.85 60.09
  Q 117.88 63.59 118.52 66.73
  C 119.00 69.12 118.06 70.64 115.50 70.20
  Q 115.05 70.12 114.86 69.71
  L 112.14 63.68
  A 2.40 2.39 72.7 0 0 109.52 62.30
  L 105.81 62.99
  Q 105.34 63.07 105.29 62.60
  C 104.37 54.24 103.84 47.92 97.07 42.49
  C 91.69 38.18 80.86 35.87 73.37 33.51
  C 63.03 30.25 53.09 25.39 43.07 21.17
  Q 37.95 19.01 26.27 10.92
  Q 25.84 10.62 25.43 10.96
  C 17.50 17.53 23.16 32.87 28.11 39.45
  C 28.96 40.58 30.26 41.02 31.44 41.79
  Q 31.91 42.10 31.65 42.59
  C 28.57 48.53 38.76 57.51 43.14 60.05
  A 1.79 1.76 -75.2 0 1 44.02 61.59
  L 43.99 65.19
  Q 43.99 65.68 44.27 66.08
  Q 48.86 72.62 55.36 77.26
  Q 55.84 77.60 55.84 78.18
  C 55.82 84.45 59.42 86.30 64.89 90.04
  Q 70.32 93.76 76.51 96.35
  Q 76.94 96.53 76.83 96.98
  L 74.85 104.98
  A 1.67 1.67 0.0 0 0 76.55 107.05
  L 85.51 106.68
  A 0.49 0.49 0.0 0 1 86.01 107.27
  L 85.22 111.52
  A 0.77 0.77 0.0 0 1 84.51 112.15
  C 82.16 112.30 74.16 110.87 75.26 115.24
  Q 76.85 121.58 79.93 127.32
  A 2.30 2.30 0.0 0 0 82.72 128.41
  L 88.29 126.46
  A 0.70 0.70 0.0 0 1 89.10 126.73
  L 92.54 131.90
  A 0.68 0.68 0.0 0 1 92.33 132.86
  C 90.64 133.89 83.55 137.23 87.23 139.80
  Q 92.03 143.16 94.81 147.87
  A 1.44 1.44 0.0 0 0 97.12 148.10
  L 102.03 142.62
  Q 102.41 142.20 102.91 142.44
  L 107.62 144.66
  Q 108.17 144.92 107.89 145.46
  L 104.87 151.36
  A 0.65 0.65 0.0 0 0 105.21 152.26
  Q 111.97 154.96 118.95 157.02
  Q 120.38 157.44 121.03 157.10
  Q 121.97 156.60 122.21 154.99
  Q 122.58 152.55 122.79 150.02
  Q 122.82 149.64 123.20 149.62
  L 132.69 149.09
  A 0.97 0.97 0.0 0 1 133.72 149.99
  L 134.18 155.84
  A 1.81 1.81 0.0 0 0 136.64 157.38
  L 151.16 151.70
  Q 151.78 151.46 151.42 150.91
  L 149.21 147.46
  Q 148.65 146.58 149.63 146.91
  L 171.94 154.27
  Q 172.45 154.43 172.05 154.79
  Q 165.78 160.43 159.30 165.82
  C 157.16 167.60 158.10 171.20 158.65 173.57
  A 0.68 0.68 0.0 0 1 158.43 174.25
  L 154.26 177.70
  A 0.25 0.25 0.0 0 1 153.85 177.52
  L 153.51 173.33
  Q 153.46 172.71 152.85 172.66
  C 144.93 171.98 147.55 179.34 147.49 183.66
  A 0.86 0.85 79.7 0 1 146.96 184.44
  Q 143.69 185.77 141.48 188.49
  Q 140.86 189.25 140.89 188.27
  C 140.94 185.73 142.79 173.93 136.22 177.61
  A 1.17 1.16 -13.9 0 0 135.64 178.56
  L 135.15 188.57
  A 0.97 0.97 0.0 0 1 134.18 189.50
  L 130.02 189.50
  Q 129.56 189.50 129.53 189.04
  C 129.15 183.84 129.46 176.61 122.06 177.11
  C 114.62 177.61 113.19 181.97 114.41 188.65
  A 0.51 0.51 0.0 0 1 113.91 189.24
  L 103.28 189.25
  Q 102.49 189.25 102.47 188.46
  L 102.17 175.42
  Q 102.16 174.97 101.86 174.65
  Q 91.44 163.44 79.49 153.78
  A 1.97 1.96 -39.4 0 1 79.82 150.51
  Q 84.54 148.03 89.99 146.92
  Q 90.87 146.75 90.94 146.12
  A 0.74 0.74 0.0 0 0 90.02 145.31
  C 85.23 146.51 78.43 147.54 76.95 152.94
  Q 76.79 153.51 77.25 153.88
  Q 89.66 163.89 100.60 175.48
  Q 100.96 175.86 100.96 176.39
  L 100.97 189.83
  Q 100.97 190.28 101.41 190.34
  Q 107.78 191.22 114.14 190.63
  C 118.85 190.19 123.25 187.28 127.40 185.02
  Q 127.98 184.70 127.99 185.37
  L 128.01 189.63
  Q 128.01 191.00 129.38 191.00
  L 135.03 191.00
  Q 136.55 191.00 136.61 189.48
  L 137.02 179.77
  A 1.25 1.25 0.0 0 1 138.23 178.57
  Q 138.97 178.55 139.35 179.22
  Q 139.56 179.61 139.54 180.31
  Q 139.37 184.96 139.24 189.46
  A 1.01 1.01 0.0 0 0 140.25 190.50
  L 140.95 190.50
  Q 141.50 190.50 141.85 190.08
  Q 144.30 187.13 147.85 185.67
  A 1.94 1.94 0.0 0 0 149.06 183.73
  L 148.57 176.49
  Q 148.54 176.02 148.81 175.64
  Q 149.85 174.17 151.70 174.24
  Q 152.14 174.26 152.18 174.70
  L 152.51 179.61
  A 0.74 0.74 0.0 0 0 153.73 180.13
  L 159.61 175.13
  Q 159.97 174.83 159.97 174.36
  C 160.02 171.29 158.26 168.71 161.20 166.19
  Q 167.97 160.36 174.42 154.80
  A 0.81 0.81 0.0 0 0 174.09 153.41
  C 165.61 151.20 159.69 148.10 149.40 145.88
  Q 148.89 145.77 148.61 145.34
  L 147.27 143.27
  Q 147.07 142.97 147.41 142.85
  Z
  M 135.81 165.94
  Q 123.74 162.97 85.99 151.80
  Q 84.99 151.50 84.71 152.31
  A 0.55 0.55 0.0 0 0 85.07 153.02
  Q 109.37 160.16 133.97 167.03
  C 139.75 168.65 141.44 165.32 146.13 163.59
  Q 156.54 159.75 166.36 154.53
  Q 167.42 153.97 166.69 153.25
  A 0.57 0.57 0.0 0 0 166.04 153.15
  Q 155.59 158.63 144.65 162.57
  C 141.62 163.66 139.26 166.79 135.81 165.94
  Z
  M 140.57 172.97
  C 132.31 173.25 122.73 170.58 113.39 168.03
  C 109.58 167.00 105.54 166.55 101.57 165.78
  A 0.72 0.72 0.0 0 1 101.22 165.60
  L 93.85 159.12
  A 0.33 0.33 0.0 0 0 93.30 159.32
  L 93.25 159.71
  Q 93.18 160.23 93.55 160.60
  C 96.15 163.23 99.48 166.98 103.29 167.57
  C 115.34 169.42 127.95 174.23 139.18 174.70
  C 142.51 174.84 144.28 172.13 146.84 170.99
  Q 150.34 169.42 153.82 167.78
  Q 154.25 167.58 154.25 167.09
  Q 154.25 166.94 154.25 166.79
  Q 154.27 166.25 153.76 166.42
  Q 147.12 168.60 141.54 172.63
  Q 141.10 172.95 140.57 172.97
  Z"
/>
<path fill="#020202" d="
  M 147.27 143.27
  L 148.61 145.34
  Q 148.89 145.77 149.40 145.88
  C 159.69 148.10 165.61 151.20 174.09 153.41
  A 0.81 0.81 0.0 0 1 174.42 154.80
  Q 167.97 160.36 161.20 166.19
  C 158.26 168.71 160.02 171.29 159.97 174.36
  Q 159.97 174.83 159.61 175.13
  L 153.73 180.13
  A 0.74 0.74 0.0 0 1 152.51 179.61
  L 152.18 174.70
  Q 152.14 174.26 151.70 174.24
  Q 149.85 174.17 148.81 175.64
  Q 148.54 176.02 148.57 176.49
  L 149.06 183.73
  A 1.94 1.94 0.0 0 1 147.85 185.67
  Q 144.30 187.13 141.85 190.08
  Q 141.50 190.50 140.95 190.50
  L 140.25 190.50
  A 1.01 1.01 0.0 0 1 139.24 189.46
  Q 139.37 184.96 139.54 180.31
  Q 139.56 179.61 139.35 179.22
  Q 138.97 178.55 138.23 178.57
  A 1.25 1.25 0.0 0 0 137.02 179.77
  L 136.61 189.48
  Q 136.55 191.00 135.03 191.00
  L 129.38 191.00
  Q 128.01 191.00 128.01 189.63
  L 127.99 185.37
  Q 127.98 184.70 127.40 185.02
  C 123.25 187.28 118.85 190.19 114.14 190.63
  Q 107.78 191.22 101.41 190.34
  Q 100.97 190.28 100.97 189.83
  L 100.96 176.39
  Q 100.96 175.86 100.60 175.48
  Q 89.66 163.89 77.25 153.88
  Q 76.79 153.51 76.95 152.94
  C 78.43 147.54 85.23 146.51 90.02 145.31
  A 0.74 0.74 0.0 0 1 90.94 146.12
  Q 90.87 146.75 89.99 146.92
  Q 84.54 148.03 79.82 150.51
  A 1.97 1.96 -39.4 0 0 79.49 153.78
  Q 91.44 163.44 101.86 174.65
  Q 102.16 174.97 102.17 175.42
  L 102.47 188.46
  Q 102.49 189.25 103.28 189.25
  L 113.91 189.24
  A 0.51 0.51 0.0 0 0 114.41 188.65
  C 113.19 181.97 114.62 177.61 122.06 177.11
  C 129.46 176.61 129.15 183.84 129.53 189.04
  Q 129.56 189.50 130.02 189.50
  L 134.18 189.50
  A 0.97 0.97 0.0 0 0 135.15 188.57
  L 135.64 178.56
  A 1.17 1.16 -13.9 0 1 136.22 177.61
  C 142.79 173.93 140.94 185.73 140.89 188.27
  Q 140.86 189.25 141.48 188.49
  Q 143.69 185.77 146.96 184.44
  A 0.86 0.85 79.7 0 0 147.49 183.66
  C 147.55 179.34 144.93 171.98 152.85 172.66
  Q 153.46 172.71 153.51 173.33
  L 153.85 177.52
  A 0.25 0.25 0.0 0 0 154.26 177.70
  L 158.43 174.25
  A 0.68 0.68 0.0 0 0 158.65 173.57
  C 158.10 171.20 157.16 167.60 159.30 165.82
  Q 165.78 160.43 172.05 154.79
  Q 172.45 154.43 171.94 154.27
  L 149.63 146.91
  Q 148.65 146.58 149.21 147.46
  L 151.42 150.91
  Q 151.78 151.46 151.16 151.70
  L 136.64 157.38
  A 1.81 1.81 0.0 0 1 134.18 155.84
  L 133.72 149.99
  A 0.97 0.97 0.0 0 0 132.69 149.09
  L 123.20 149.62
  Q 122.82 149.64 122.79 150.02
  Q 122.58 152.55 122.21 154.99
  Q 121.97 156.60 121.03 157.10
  Q 120.38 157.44 118.95 157.02
  Q 111.97 154.96 105.21 152.26
  A 0.65 0.65 0.0 0 1 104.87 151.36
  L 107.89 145.46
  Q 108.17 144.92 107.62 144.66
  L 102.91 142.44
  Q 102.41 142.20 102.03 142.62
  L 97.12 148.10
  A 1.44 1.44 0.0 0 1 94.81 147.87
  Q 92.03 143.16 87.23 139.80
  C 83.55 137.23 90.64 133.89 92.33 132.86
  A 0.68 0.68 0.0 0 0 92.54 131.90
  L 89.10 126.73
  A 0.70 0.70 0.0 0 0 88.29 126.46
  L 82.72 128.41
  A 2.30 2.30 0.0 0 1 79.93 127.32
  Q 76.85 121.58 75.26 115.24
  C 74.16 110.87 82.16 112.30 84.51 112.15
  A 0.77 0.77 0.0 0 0 85.22 111.52
  L 86.01 107.27
  A 0.49 0.49 0.0 0 0 85.51 106.68
  L 76.55 107.05
  A 1.67 1.67 0.0 0 1 74.85 104.98
  L 76.83 96.98
  Q 76.94 96.53 76.51 96.35
  Q 70.32 93.76 64.89 90.04
  C 59.42 86.30 55.82 84.45 55.84 78.18
  Q 55.84 77.60 55.36 77.26
  Q 48.86 72.62 44.27 66.08
  Q 43.99 65.68 43.99 65.19
  L 44.02 61.59
  A 1.79 1.76 -75.2 0 0 43.14 60.05
  C 38.76 57.51 28.57 48.53 31.65 42.59
  Q 31.91 42.10 31.44 41.79
  C 30.26 41.02 28.96 40.58 28.11 39.45
  C 23.16 32.87 17.50 17.53 25.43 10.96
  Q 25.84 10.62 26.27 10.92
  Q 37.95 19.01 43.07 21.17
  C 53.09 25.39 63.03 30.25 73.37 33.51
  C 80.86 35.87 91.69 38.18 97.07 42.49
  C 103.84 47.92 104.37 54.24 105.29 62.60
  Q 105.34 63.07 105.81 62.99
  L 109.52 62.30
  A 2.40 2.39 72.7 0 1 112.14 63.68
  L 114.86 69.71
  Q 115.05 70.12 115.50 70.20
  C 118.06 70.64 119.00 69.12 118.52 66.73
  Q 117.88 63.59 117.85 60.09
  A 1.61 1.60 0.0 0 1 119.48 58.47
  L 132.03 58.60
  Q 132.73 58.61 132.80 57.91
  C 133.38 52.38 124.36 47.32 119.83 44.57
  C 109.70 38.42 100.15 31.16 98.58 18.27
  A 1.33 1.33 0.0 0 1 99.40 16.88
  C 102.11 15.80 103.54 18.46 105.24 19.44
  C 114.25 24.58 122.12 25.84 133.12 27.60
  C 143.86 29.33 154.74 32.48 165.77 34.27
  Q 174.79 35.73 177.86 37.36
  C 186.36 41.90 188.06 51.14 185.29 59.89
  C 183.90 64.27 182.03 69.35 177.87 71.90
  Q 172.81 75.01 167.67 77.81
  Q 167.15 78.09 167.59 78.48
  C 174.87 85.03 167.00 86.63 163.36 90.95
  A 0.74 0.74 0.0 0 0 163.39 91.94
  L 165.55 94.20
  A 1.41 1.41 0.0 0 0 166.77 94.63
  L 174.15 93.58
  A 1.44 1.43 -6.0 0 1 175.78 94.89
  L 176.59 105.68
  A 0.53 0.52 -2.5 0 1 176.06 106.25
  L 166.95 106.25
  A 0.55 0.55 0.0 0 0 166.40 106.79
  L 166.34 112.01
  A 0.43 0.43 0.0 0 0 166.76 112.45
  L 174.10 112.63
  A 1.39 1.38 9.6 0 1 175.39 114.44
  L 171.85 125.19
  A 1.58 1.57 -67.3 0 1 169.64 126.10
  L 165.16 123.85
  Q 164.72 123.63 164.54 124.08
  L 163.20 127.52
  Q 163.01 128.01 163.47 128.27
  C 165.49 129.38 171.39 133.18 168.55 136.31
  Q 164.73 140.53 160.29 144.12
  A 0.74 0.74 0.0 0 1 159.40 144.15
  Q 156.26 141.98 154.25 138.74
  Q 153.99 138.31 153.65 138.69
  Q 151.10 141.59 147.41 142.85
  Q 147.07 142.97 147.27 143.27
  Z
  M 86.70 95.25
  Q 88.07 96.41 87.25 97.17
  Q 86.88 97.52 86.16 97.52
  Q 83.34 97.53 80.62 96.80
  Q 80.02 96.63 79.85 97.23
  L 77.97 103.67
  Q 77.79 104.29 78.43 104.27
  L 87.19 104.08
  A 1.47 1.47 0.0 0 1 88.69 105.48
  Q 88.88 109.43 87.57 113.14
  A 2.42 2.42 0.0 0 1 85.29 114.75
  L 78.69 114.75
  A 0.65 0.64 79.4 0 0 78.09 115.63
  L 81.73 125.08
  A 0.70 0.70 0.0 0 0 82.60 125.49
  L 88.90 123.47
  A 0.87 0.87 0.0 0 1 89.75 123.66
  Q 92.80 126.49 94.76 130.29
  C 97.35 135.33 92.32 135.18 90.02 137.73
  Q 89.62 138.17 90.06 138.56
  Q 93.51 141.64 95.87 145.65
  Q 96.19 146.19 96.59 145.71
  C 98.06 143.93 100.69 138.27 103.36 139.65
  C 105.86 140.94 108.16 141.94 110.20 144.06
  A 0.91 0.90 -52.9 0 1 110.34 145.11
  L 107.49 150.52
  A 0.51 0.50 23.1 0 0 107.78 151.23
  L 119.79 155.19
  Q 120.43 155.40 120.45 154.73
  L 120.68 148.06
  A 0.43 0.42 -90.0 0 1 121.08 147.65
  L 134.00 146.92
  A 1.32 1.31 84.7 0 1 135.39 148.08
  L 136.21 154.94
  Q 136.27 155.42 136.72 155.24
  L 147.98 150.71
  Q 148.52 150.49 148.29 149.96
  L 145.19 142.76
  A 0.54 0.53 -29.0 0 1 145.38 142.11
  L 153.88 136.27
  A 0.82 0.81 -36.8 0 1 154.97 136.42
  L 159.15 141.55
  Q 159.59 142.08 160.09 141.62
  L 167.29 134.96
  Q 167.64 134.64 167.33 134.27
  Q 164.62 130.98 160.70 129.37
  A 0.52 0.52 0.0 0 1 160.42 128.69
  L 163.02 122.24
  A 1.43 1.43 0.0 0 1 164.99 121.50
  L 169.66 123.88
  Q 170.25 124.18 170.36 123.53
  Q 171.17 119.07 173.38 115.11
  Q 173.73 114.50 173.03 114.50
  L 165.30 114.49
  A 0.79 0.78 -1.1 0 1 164.51 113.74
  L 164.17 105.45
  A 0.84 0.84 0.0 0 1 164.96 104.58
  L 174.15 104.11
  Q 174.47 104.09 174.44 103.78
  L 173.78 96.20
  Q 173.73 95.67 173.20 95.75
  L 165.24 96.99
  Q 164.82 97.06 164.47 96.82
  Q 161.84 95.00 160.46 92.07
  A 2.25 2.24 53.2 0 1 160.81 89.61
  Q 163.85 86.19 167.93 84.01
  A 0.66 0.66 0.0 0 0 168.10 82.97
  L 163.98 78.72
  Q 163.53 78.26 162.96 78.55
  L 154.86 82.52
  A 0.93 0.92 -41.6 0 1 153.97 82.47
  L 149.00 79.29
  A 2.26 2.26 0.0 0 1 148.32 76.15
  L 152.36 69.99
  A 0.58 0.57 30.9 0 0 152.15 69.17
  L 144.04 64.77
  Q 143.54 64.50 143.30 65.01
  L 140.24 71.64
  A 2.07 2.06 -70.5 0 1 137.87 72.78
  L 132.70 71.51
  A 1.41 1.40 -78.2 0 1 131.65 69.90
  L 133.08 61.94
  Q 133.17 61.43 132.66 61.41
  L 120.89 60.98
  Q 120.45 60.97 120.48 61.40
  Q 120.69 64.48 121.29 67.49
  C 122.24 72.23 117.15 73.56 113.59 72.72
  Q 113.12 72.61 112.94 72.16
  L 110.14 65.35
  A 0.70 0.70 0.0 0 0 109.32 64.94
  L 106.43 65.71
  Q 105.75 65.90 106.04 66.54
  L 109.39 74.15
  A 0.75 0.75 0.0 0 1 108.67 75.20
  L 107.41 75.14
  A 0.41 0.39 -14.3 0 1 107.09 74.96
  Q 103.18 69.08 102.79 64.43
  C 101.66 50.71 99.47 44.50 85.89 40.15
  C 76.78 37.22 67.77 34.72 58.95 30.83
  C 48.06 26.03 37.77 21.83 27.82 15.28
  Q 24.86 13.34 24.64 16.87
  C 24.36 21.33 24.17 24.98 25.86 29.17
  C 26.94 31.82 28.51 36.13 30.66 38.03
  C 32.32 39.49 35.67 40.02 34.15 43.20
  C 31.73 48.22 42.22 56.51 46.02 58.51
  A 2.39 2.38 22.1 0 1 47.20 61.28
  L 46.44 63.89
  A 0.97 0.96 -55.1 0 0 46.58 64.70
  Q 51.15 71.15 57.81 75.45
  C 60.67 77.30 57.13 80.28 60.12 82.91
  C 67.49 89.43 75.43 93.91 85.62 94.80
  A 2.00 1.99 -22.2 0 1 86.70 95.25
  Z
  M 107.25 30.99
  A 0.30 0.30 0.0 0 1 107.71 30.72
  Q 113.79 34.60 119.33 36.82
  C 124.57 38.93 131.09 38.99 136.96 40.24
  C 138.39 40.54 138.92 41.51 138.41 42.86
  A 0.63 0.63 0.0 0 1 137.68 43.26
  C 130.41 41.61 123.02 42.09 116.14 38.48
  Q 116.00 38.41 115.93 38.46
  Q 115.85 38.52 115.76 38.69
  A 0.34 0.34 0.0 0 0 115.90 39.16
  Q 124.53 43.56 131.97 49.76
  Q 132.35 50.09 132.76 49.80
  Q 133.74 49.12 134.50 49.25
  Q 141.29 50.38 148.09 51.36
  C 149.36 51.55 150.62 52.11 151.20 53.18
  A 0.91 0.91 0.0 0 1 150.26 54.51
  L 134.79 52.20
  Q 134.24 52.11 134.42 52.64
  Q 137.08 60.38 134.78 68.30
  Q 134.65 68.75 135.03 69.03
  Q 136.41 70.02 137.62 69.54
  Q 138.55 69.16 139.14 67.48
  Q 140.18 64.51 141.98 61.80
  A 1.50 1.49 -58.1 0 1 143.97 61.33
  L 155.68 68.06
  A 1.23 1.23 0.0 0 1 156.07 69.85
  L 151.45 76.26
  Q 150.78 77.20 151.78 77.78
  L 154.39 79.30
  A 0.79 0.79 0.0 0 0 155.12 79.32
  L 160.50 76.62
  Q 160.85 76.45 160.98 76.08
  L 161.73 74.06
  Q 162.00 73.31 162.61 73.84
  L 165.26 76.12
  Q 165.59 76.40 165.94 76.14
  Q 169.38 73.60 173.18 71.66
  C 179.57 68.41 181.19 64.40 183.15 57.86
  C 186.53 46.58 179.62 38.82 168.69 37.32
  Q 154.43 35.37 140.55 31.62
  Q 136.61 30.56 131.85 30.07
  C 121.51 29.01 110.36 26.51 101.90 20.28
  Q 101.31 19.84 101.47 20.56
  Q 102.75 26.47 106.66 31.11
  Q 106.85 31.33 107.12 31.23
  Q 107.25 31.18 107.25 30.99
  Z
  M 116.76 188.66
  L 127.83 183.43
  A 0.30 0.30 0.0 0 0 127.97 183.03
  L 127.61 182.25
  A 6.50 6.40 64.7 0 0 119.04 179.11
  L 119.01 179.13
  A 6.50 6.40 64.7 0 0 116.00 187.74
  L 116.36 188.52
  A 0.30 0.30 0.0 0 0 116.76 188.66
  Z"
/>
<path fill="#ffffff" d="
  M 86.70 95.25
  A 2.00 1.99 -22.2 0 0 85.62 94.80
  C 75.43 93.91 67.49 89.43 60.12 82.91
  C 57.13 80.28 60.67 77.30 57.81 75.45
  Q 51.15 71.15 46.58 64.70
  A 0.97 0.96 -55.1 0 1 46.44 63.89
  L 47.20 61.28
  A 2.39 2.38 22.1 0 0 46.02 58.51
  C 42.22 56.51 31.73 48.22 34.15 43.20
  C 35.67 40.02 32.32 39.49 30.66 38.03
  C 28.51 36.13 26.94 31.82 25.86 29.17
  C 24.17 24.98 24.36 21.33 24.64 16.87
  Q 24.86 13.34 27.82 15.28
  C 37.77 21.83 48.06 26.03 58.95 30.83
  C 67.77 34.72 76.78 37.22 85.89 40.15
  C 99.47 44.50 101.66 50.71 102.79 64.43
  Q 103.18 69.08 107.09 74.96
  A 0.41 0.39 -14.3 0 0 107.41 75.14
  L 108.67 75.20
  A 0.75 0.75 0.0 0 0 109.39 74.15
  L 106.04 66.54
  Q 105.75 65.90 106.43 65.71
  L 109.32 64.94
  A 0.70 0.70 0.0 0 1 110.14 65.35
  L 112.94 72.16
  Q 113.12 72.61 113.59 72.72
  C 117.15 73.56 122.24 72.23 121.29 67.49
  Q 120.69 64.48 120.48 61.40
  Q 120.45 60.97 120.89 60.98
  L 132.66 61.41
  Q 133.17 61.43 133.08 61.94
  L 131.65 69.90
  A 1.41 1.40 -78.2 0 0 132.70 71.51
  L 137.87 72.78
  A 2.07 2.06 -70.5 0 0 140.24 71.64
  L 143.30 65.01
  Q 143.54 64.50 144.04 64.77
  L 152.15 69.17
  A 0.58 0.57 30.9 0 1 152.36 69.99
  L 148.32 76.15
  A 2.26 2.26 0.0 0 0 149.00 79.29
  L 153.97 82.47
  A 0.93 0.92 -41.6 0 0 154.86 82.52
  L 162.96 78.55
  Q 163.53 78.26 163.98 78.72
  L 168.10 82.97
  A 0.66 0.66 0.0 0 1 167.93 84.01
  Q 163.85 86.19 160.81 89.61
  A 2.25 2.24 53.2 0 0 160.46 92.07
  Q 161.84 95.00 164.47 96.82
  Q 164.82 97.06 165.24 96.99
  L 173.20 95.75
  Q 173.73 95.67 173.78 96.20
  L 174.44 103.78
  Q 174.47 104.09 174.15 104.11
  L 164.96 104.58
  A 0.84 0.84 0.0 0 0 164.17 105.45
  L 164.51 113.74
  A 0.79 0.78 -1.1 0 0 165.30 114.49
  L 173.03 114.50
  Q 173.73 114.50 173.38 115.11
  Q 171.17 119.07 170.36 123.53
  Q 170.25 124.18 169.66 123.88
  L 164.99 121.50
  A 1.43 1.43 0.0 0 0 163.02 122.24
  L 160.42 128.69
  A 0.52 0.52 0.0 0 0 160.70 129.37
  Q 164.62 130.98 167.33 134.27
  Q 167.64 134.64 167.29 134.96
  L 160.09 141.62
  Q 159.59 142.08 159.15 141.55
  L 154.97 136.42
  A 0.82 0.81 -36.8 0 0 153.88 136.27
  L 145.38 142.11
  A 0.54 0.53 -29.0 0 0 145.19 142.76
  L 148.29 149.96
  Q 148.52 150.49 147.98 150.71
  L 136.72 155.24
  Q 136.27 155.42 136.21 154.94
  L 135.39 148.08
  A 1.32 1.31 84.7 0 0 134.00 146.92
  L 121.08 147.65
  A 0.43 0.42 -90.0 0 0 120.68 148.06
  L 120.45 154.73
  Q 120.43 155.40 119.79 155.19
  L 107.78 151.23
  A 0.51 0.50 23.1 0 1 107.49 150.52
  L 110.34 145.11
  A 0.91 0.90 -52.9 0 0 110.20 144.06
  C 108.16 141.94 105.86 140.94 103.36 139.65
  C 100.69 138.27 98.06 143.93 96.59 145.71
  Q 96.19 146.19 95.87 145.65
  Q 93.51 141.64 90.06 138.56
  Q 89.62 138.17 90.02 137.73
  C 92.32 135.18 97.35 135.33 94.76 130.29
  Q 92.80 126.49 89.75 123.66
  A 0.87 0.87 0.0 0 0 88.90 123.47
  L 82.60 125.49
  A 0.70 0.70 0.0 0 1 81.73 125.08
  L 78.09 115.63
  A 0.65 0.64 79.4 0 1 78.69 114.75
  L 85.29 114.75
  A 2.42 2.42 0.0 0 0 87.57 113.14
  Q 88.88 109.43 88.69 105.48
  A 1.47 1.47 0.0 0 0 87.19 104.08
  L 78.43 104.27
  Q 77.79 104.29 77.97 103.67
  L 79.85 97.23
  Q 80.02 96.63 80.62 96.80
  Q 83.34 97.53 86.16 97.52
  Q 86.88 97.52 87.25 97.17
  Q 88.07 96.41 86.70 95.25
  Z
  M 69.78 50.23
  C 60.73 51.61 51.38 47.68 42.79 44.18
  Q 41.06 43.48 39.20 44.78
  A 0.84 0.84 0.0 0 0 38.86 45.65
  C 41.50 57.70 70.18 61.48 79.50 61.87
  C 80.71 61.92 82.23 62.48 83.47 62.75
  A 0.62 0.62 0.0 0 1 83.96 63.27
  C 84.70 68.63 70.95 65.39 67.76 64.61
  Q 60.37 62.81 54.75 61.76
  Q 52.53 61.34 51.70 63.15
  A 1.15 1.15 0.0 0 0 51.65 63.99
  C 53.48 69.56 61.02 72.40 66.18 73.09
  Q 72.99 74.01 85.74 75.35
  Q 88.39 75.63 90.25 77.03
  A 0.59 0.59 0.0 0 1 90.03 78.08
  C 81.75 80.04 72.77 78.55 64.57 76.61
  A 1.65 1.64 -7.5 0 0 62.74 78.99
  C 63.77 80.90 65.38 85.59 67.57 86.43
  Q 82.35 92.10 97.54 93.93
  A 1.00 1.00 0.0 0 1 97.61 95.91
  Q 95.09 96.39 92.77 97.09
  C 90.65 97.72 90.84 99.52 92.30 100.74
  Q 101.54 108.37 113.56 110.33
  A 0.81 0.79 -2.1 0 1 114.20 110.91
  Q 116.58 119.75 124.91 120.28
  C 139.81 121.23 139.36 100.07 126.59 99.47
  Q 122.26 99.26 118.10 100.52
  Q 117.66 100.66 117.26 100.45
  Q 111.56 97.53 109.53 94.76
  Q 103.90 87.12 102.07 75.00
  C 100.69 65.88 98.31 48.73 86.74 45.51
  C 77.25 42.86 67.32 40.75 58.18 37.04
  C 52.91 34.90 47.62 33.44 42.76 29.79
  C 38.65 26.70 33.92 24.94 29.86 21.71
  A 1.45 1.45 0.0 0 0 27.51 22.82
  C 27.46 25.69 26.96 28.48 28.64 31.03
  C 35.67 41.70 52.39 44.72 69.82 49.51
  A 0.37 0.37 0.0 0 1 69.78 50.23
  Z
  M 126.45 121.09
  C 118.11 121.11 116.01 119.85 112.94 112.03
  A 0.82 0.81 79.7 0 0 112.20 111.51
  Q 104.96 111.28 97.97 109.49
  Q 96.57 109.13 95.99 109.26
  Q 94.70 109.53 94.75 111.26
  C 94.95 119.09 98.43 125.95 103.41 131.78
  C 115.24 145.59 136.85 142.73 148.80 131.03
  C 156.21 123.78 157.23 116.05 156.23 106.18
  C 155.13 95.47 151.11 88.48 142.20 82.57
  Q 135.31 77.99 127.70 78.75
  C 120.84 79.43 114.99 79.33 109.21 82.82
  Q 108.82 83.05 108.68 83.49
  C 107.67 86.73 111.99 92.74 113.64 95.65
  C 115.65 99.17 118.03 97.27 120.80 97.25
  C 126.64 97.21 135.32 96.82 137.28 104.19
  C 137.94 106.65 137.41 112.84 136.39 115.00
  Q 133.52 121.07 126.45 121.09
  Z"
/>
<path fill="#ffffff" d="
  M 107.25 30.99
  Q 107.25 31.18 107.12 31.23
  Q 106.85 31.33 106.66 31.11
  Q 102.75 26.47 101.47 20.56
  Q 101.31 19.84 101.90 20.28
  C 110.36 26.51 121.51 29.01 131.85 30.07
  Q 136.61 30.56 140.55 31.62
  Q 154.43 35.37 168.69 37.32
  C 179.62 38.82 186.53 46.58 183.15 57.86
  C 181.19 64.40 179.57 68.41 173.18 71.66
  Q 169.38 73.60 165.94 76.14
  Q 165.59 76.40 165.26 76.12
  L 162.61 73.84
  Q 162.00 73.31 161.73 74.06
  L 160.98 76.08
  Q 160.85 76.45 160.50 76.62
  L 155.12 79.32
  A 0.79 0.79 0.0 0 1 154.39 79.30
  L 151.78 77.78
  Q 150.78 77.20 151.45 76.26
  L 156.07 69.85
  A 1.23 1.23 0.0 0 0 155.68 68.06
  L 143.97 61.33
  A 1.50 1.49 -58.1 0 0 141.98 61.80
  Q 140.18 64.51 139.14 67.48
  Q 138.55 69.16 137.62 69.54
  Q 136.41 70.02 135.03 69.03
  Q 134.65 68.75 134.78 68.30
  Q 137.08 60.38 134.42 52.64
  Q 134.24 52.11 134.79 52.20
  L 150.26 54.51
  A 0.91 0.91 0.0 0 0 151.20 53.18
  C 150.62 52.11 149.36 51.55 148.09 51.36
  Q 141.29 50.38 134.50 49.25
  Q 133.74 49.12 132.76 49.80
  Q 132.35 50.09 131.97 49.76
  Q 124.53 43.56 115.90 39.16
  A 0.34 0.34 0.0 0 1 115.76 38.69
  Q 115.85 38.52 115.93 38.46
  Q 116.00 38.41 116.14 38.48
  C 123.02 42.09 130.41 41.61 137.68 43.26
  A 0.63 0.63 0.0 0 0 138.41 42.86
  C 138.92 41.51 138.39 40.54 136.96 40.24
  C 131.09 38.99 124.57 38.93 119.33 36.82
  Q 113.79 34.60 107.71 30.72
  A 0.30 0.30 0.0 0 0 107.25 30.99
  Z"
/>
<path fill="#020202" d="
  M 69.82 49.51
  C 52.39 44.72 35.67 41.70 28.64 31.03
  C 26.96 28.48 27.46 25.69 27.51 22.82
  A 1.45 1.45 0.0 0 1 29.86 21.71
  C 33.92 24.94 38.65 26.70 42.76 29.79
  C 47.62 33.44 52.91 34.90 58.18 37.04
  C 67.32 40.75 77.25 42.86 86.74 45.51
  C 98.31 48.73 100.69 65.88 102.07 75.00
  Q 103.90 87.12 109.53 94.76
  Q 111.56 97.53 117.26 100.45
  Q 117.66 100.66 118.10 100.52
  Q 122.26 99.26 126.59 99.47
  C 139.36 100.07 139.81 121.23 124.91 120.28
  Q 116.58 119.75 114.20 110.91
  A 0.81 0.79 -2.1 0 0 113.56 110.33
  Q 101.54 108.37 92.30 100.74
  C 90.84 99.52 90.65 97.72 92.77 97.09
  Q 95.09 96.39 97.61 95.91
  A 1.00 1.00 0.0 0 0 97.54 93.93
  Q 82.35 92.10 67.57 86.43
  C 65.38 85.59 63.77 80.90 62.74 78.99
  A 1.65 1.64 -7.5 0 1 64.57 76.61
  C 72.77 78.55 81.75 80.04 90.03 78.08
  A 0.59 0.59 0.0 0 0 90.25 77.03
  Q 88.39 75.63 85.74 75.35
  Q 72.99 74.01 66.18 73.09
  C 61.02 72.40 53.48 69.56 51.65 63.99
  A 1.15 1.15 0.0 0 1 51.70 63.15
  Q 52.53 61.34 54.75 61.76
  Q 60.37 62.81 67.76 64.61
  C 70.95 65.39 84.70 68.63 83.96 63.27
  A 0.62 0.62 0.0 0 0 83.47 62.75
  C 82.23 62.48 80.71 61.92 79.50 61.87
  C 70.18 61.48 41.50 57.70 38.86 45.65
  A 0.84 0.84 0.0 0 1 39.20 44.78
  Q 41.06 43.48 42.79 44.18
  C 51.38 47.68 60.73 51.61 69.78 50.23
  A 0.37 0.37 0.0 0 0 69.82 49.51
  Z
  M 71.81 52.24
  C 63.97 56.02 50.21 50.50 42.84 46.99
  A 0.19 0.19 0.0 0 0 42.63 47.29
  C 52.07 56.57 67.65 58.17 82.49 59.59
  C 88.81 60.19 88.22 67.85 82.02 68.74
  C 73.41 69.97 64.06 66.60 55.74 64.91
  Q 54.86 64.73 55.53 65.33
  Q 59.85 69.24 65.45 70.04
  Q 73.84 71.23 86.93 72.57
  Q 88.71 72.75 92.19 74.66
  Q 92.61 74.89 92.80 75.33
  C 97.33 85.75 70.55 80.81 67.00 79.88
  Q 66.21 79.68 66.58 80.41
  L 68.02 83.28
  A 1.43 1.37 86.1 0 0 68.78 83.97
  Q 83.47 89.35 99.02 91.41
  C 103.15 91.95 101.56 99.37 95.45 99.01
  Q 94.49 98.95 95.25 99.54
  Q 104.19 106.43 115.47 107.59
  Q 116.43 107.68 116.61 108.64
  C 119.77 124.96 139.40 116.15 131.95 105.48
  C 128.91 101.13 122.42 101.88 118.12 103.88
  Q 117.65 104.10 117.19 103.85
  C 112.56 101.32 108.67 98.75 105.85 94.05
  C 99.72 83.80 99.23 73.64 96.91 62.77
  C 95.79 57.56 91.50 49.73 86.01 48.24
  Q 74.86 45.21 63.75 42.03
  C 59.20 40.73 54.67 38.64 50.08 36.97
  Q 46.80 35.77 43.84 33.78
  Q 37.53 29.54 30.76 26.06
  Q 30.16 25.75 30.26 26.41
  C 31.18 32.50 37.82 36.71 43.26 38.48
  Q 56.94 42.94 70.75 46.98
  Q 72.45 47.48 73.01 48.50
  A 2.71 2.71 0.0 0 1 71.81 52.24
  Z"
/>
<path fill="#ffffff" d="
  M 71.81 52.24
  A 2.71 2.71 0.0 0 0 73.01 48.50
  Q 72.45 47.48 70.75 46.98
  Q 56.94 42.94 43.26 38.48
  C 37.82 36.71 31.18 32.50 30.26 26.41
  Q 30.16 25.75 30.76 26.06
  Q 37.53 29.54 43.84 33.78
  Q 46.80 35.77 50.08 36.97
  C 54.67 38.64 59.20 40.73 63.75 42.03
  Q 74.86 45.21 86.01 48.24
  C 91.50 49.73 95.79 57.56 96.91 62.77
  C 99.23 73.64 99.72 83.80 105.85 94.05
  C 108.67 98.75 112.56 101.32 117.19 103.85
  Q 117.65 104.10 118.12 103.88
  C 122.42 101.88 128.91 101.13 131.95 105.48
  C 139.40 116.15 119.77 124.96 116.61 108.64
  Q 116.43 107.68 115.47 107.59
  Q 104.19 106.43 95.25 99.54
  Q 94.49 98.95 95.45 99.01
  C 101.56 99.37 103.15 91.95 99.02 91.41
  Q 83.47 89.35 68.78 83.97
  A 1.43 1.37 86.1 0 1 68.02 83.28
  L 66.58 80.41
  Q 66.21 79.68 67.00 79.88
  C 70.55 80.81 97.33 85.75 92.80 75.33
  Q 92.61 74.89 92.19 74.66
  Q 88.71 72.75 86.93 72.57
  Q 73.84 71.23 65.45 70.04
  Q 59.85 69.24 55.53 65.33
  Q 54.86 64.73 55.74 64.91
  C 64.06 66.60 73.41 69.97 82.02 68.74
  C 88.22 67.85 88.81 60.19 82.49 59.59
  C 67.65 58.17 52.07 56.57 42.63 47.29
  A 0.19 0.19 0.0 0 1 42.84 46.99
  C 50.21 50.50 63.97 56.02 71.81 52.24
  Z"
/>
<path fill="#020202" d="
  M 126.45 121.09
  Q 133.52 121.07 136.39 115.00
  C 137.41 112.84 137.94 106.65 137.28 104.19
  C 135.32 96.82 126.64 97.21 120.80 97.25
  C 118.03 97.27 115.65 99.17 113.64 95.65
  C 111.99 92.74 107.67 86.73 108.68 83.49
  Q 108.82 83.05 109.21 82.82
  C 114.99 79.33 120.84 79.43 127.70 78.75
  Q 135.31 77.99 142.20 82.57
  C 151.11 88.48 155.13 95.47 156.23 106.18
  C 157.23 116.05 156.21 123.78 148.80 131.03
  C 136.85 142.73 115.24 145.59 103.41 131.78
  C 98.43 125.95 94.95 119.09 94.75 111.26
  Q 94.70 109.53 95.99 109.26
  Q 96.57 109.13 97.97 109.49
  Q 104.96 111.28 112.20 111.51
  A 0.82 0.81 79.7 0 1 112.94 112.03
  C 116.01 119.85 118.11 121.11 126.45 121.09
  Z
  M 102.25 124.79
  L 100.78 122.27
  A 0.23 0.23 0.0 0 0 100.36 122.47
  C 101.45 125.44 104.48 128.77 106.61 131.11
  C 117.51 143.03 141.40 139.26 149.91 126.08
  C 153.85 119.99 153.92 114.79 153.39 107.05
  C 152.63 95.95 147.48 87.95 137.25 83.09
  C 131.38 80.30 117.21 81.62 111.08 84.86
  Q 110.97 84.92 111.02 85.10
  Q 111.04 85.20 111.14 85.17
  L 120.47 82.61
  A 2.02 2.01 78.1 0 1 123.00 84.27
  L 124.27 93.16
  A 1.82 1.82 0.0 0 0 127.85 93.29
  L 129.91 83.92
  A 1.45 1.45 0.0 0 1 131.88 82.90
  Q 135.91 84.60 139.29 86.46
  C 144.33 89.22 139.09 94.74 136.38 96.69
  Q 135.91 97.03 136.32 97.44
  L 137.14 98.26
  A 0.67 0.67 0.0 0 0 138.02 98.33
  L 145.68 92.67
  Q 147.20 91.55 147.99 93.27
  L 151.82 101.67
  A 1.94 1.94 0.0 0 1 150.60 104.34
  L 141.08 107.11
  A 0.73 0.73 0.0 0 0 140.56 107.75
  L 140.34 110.81
  Q 140.31 111.18 140.68 111.21
  C 144.40 111.57 147.68 112.59 151.31 113.35
  C 155.45 114.23 149.98 122.62 148.41 124.19
  Q 147.99 124.62 147.47 124.31
  L 138.07 118.80
  Q 137.71 118.59 137.41 118.89
  L 134.63 121.67
  Q 134.40 121.90 134.73 121.94
  Q 135.92 122.08 136.63 123.10
  Q 139.09 126.66 141.17 129.58
  A 2.35 2.35 0.0 0 1 140.54 132.92
  Q 136.75 135.39 132.27 136.44
  A 1.79 1.79 0.0 0 1 130.13 135.14
  C 129.25 131.70 127.32 127.27 127.92 124.04
  Q 128.00 123.61 127.57 123.61
  L 122.90 123.58
  Q 122.74 123.58 122.84 123.71
  Q 123.75 124.96 123.32 127.57
  Q 122.55 132.30 121.70 134.95
  Q 121.11 136.80 119.38 136.23
  C 116.16 135.18 113.25 134.47 110.30 132.80
  A 1.20 1.20 0.0 0 1 109.88 131.09
  L 115.63 122.37
  Q 115.90 121.96 115.52 121.64
  L 113.43 119.87
  Q 113.02 119.53 112.59 119.83
  L 104.59 125.31
  A 1.64 1.64 0.0 0 1 102.25 124.79
  Z
  M 120.87 85.48
  A 0.59 0.59 0.0 0 0 120.14 84.99
  L 112.96 86.90
  A 0.59 0.59 0.0 0 0 112.59 87.74
  L 116.01 94.39
  A 0.59 0.59 0.0 0 0 116.61 94.70
  L 121.49 94.13
  A 0.59 0.59 0.0 0 0 122.01 93.46
  L 120.87 85.48
  Z
  M 139.41 89.00
  L 132.47 85.44
  A 0.23 0.23 0.0 0 0 132.16 85.54
  L 132.10 85.65
  A 9.04 4.12 -62.8 0 0 131.63 95.58
  L 131.65 95.58
  A 9.04 4.12 -62.8 0 0 139.45 89.43
  L 139.51 89.31
  A 0.23 0.23 0.0 0 0 139.41 89.00
  Z
  M 149.67 101.56
  L 146.52 95.49
  A 0.42 0.42 0.0 0 0 145.96 95.31
  L 145.67 95.46
  A 8.76 3.42 -27.4 0 0 139.47 102.52
  L 139.86 103.27
  A 8.76 3.42 -27.4 0 0 149.21 102.27
  L 149.49 102.13
  A 0.42 0.42 0.0 0 0 149.67 101.56
  Z
  M 102.01 113.19
  L 98.21 112.53
  A 0.47 0.47 0.0 0 0 97.67 113.04
  L 98.21 118.00
  A 0.28 0.28 0.0 0 0 98.76 117.99
  Q 98.82 117.13 98.50 116.33
  A 1.02 1.01 -38.1 0 1 98.62 115.37
  Q 99.84 113.64 101.95 113.72
  A 0.27 0.27 0.0 0 0 102.01 113.19
  Z
  M 141.46 118.76
  L 146.89 121.36
  A 1.47 1.47 0.0 0 0 148.85 120.66
  L 149.79 118.69
  A 2.91 2.71 -64.5 0 0 148.60 114.90
  L 145.40 113.38
  A 2.91 2.71 -64.5 0 0 141.71 114.84
  L 140.77 116.80
  A 1.47 1.47 0.0 0 0 141.46 118.76
  Z
  M 104.31 122.69
  L 110.09 119.14
  A 0.80 0.80 0.0 0 0 110.35 118.04
  L 108.79 115.50
  A 3.28 3.16 -31.6 0 0 104.34 114.53
  L 102.79 115.48
  A 3.28 3.16 -31.6 0 0 101.65 119.89
  L 103.21 122.43
  A 0.80 0.80 0.0 0 0 104.31 122.69
  Z
  M 134.99 124.32
  A 0.77 0.77 0.0 0 0 134.15 124.01
  L 130.34 125.02
  A 0.77 0.77 0.0 0 0 129.80 125.97
  L 131.93 133.71
  A 0.77 0.77 0.0 0 0 132.98 134.21
  L 138.87 131.68
  A 0.77 0.77 0.0 0 0 139.21 130.54
  L 134.99 124.32
  Z
  M 112.87 131.68
  L 119.26 134.19
  A 0.29 0.29 0.0 0 0 119.63 134.02
  L 119.69 133.88
  A 8.14 2.23 -68.6 0 0 120.58 125.49
  L 117.81 124.40
  A 8.14 2.23 -68.6 0 0 112.76 131.17
  L 112.71 131.31
  A 0.29 0.29 0.0 0 0 112.87 131.68
  Z"
/>
<path fill="#ffffff" d="
  M 102.25 124.79
  A 1.64 1.64 0.0 0 0 104.59 125.31
  L 112.59 119.83
  Q 113.02 119.53 113.43 119.87
  L 115.52 121.64
  Q 115.90 121.96 115.63 122.37
  L 109.88 131.09
  A 1.20 1.20 0.0 0 0 110.30 132.80
  C 113.25 134.47 116.16 135.18 119.38 136.23
  Q 121.11 136.80 121.70 134.95
  Q 122.55 132.30 123.32 127.57
  Q 123.75 124.96 122.84 123.71
  Q 122.74 123.58 122.90 123.58
  L 127.57 123.61
  Q 128.00 123.61 127.92 124.04
  C 127.32 127.27 129.25 131.70 130.13 135.14
  A 1.79 1.79 0.0 0 0 132.27 136.44
  Q 136.75 135.39 140.54 132.92
  A 2.35 2.35 0.0 0 0 141.17 129.58
  Q 139.09 126.66 136.63 123.10
  Q 135.92 122.08 134.73 121.94
  Q 134.40 121.90 134.63 121.67
  L 137.41 118.89
  Q 137.71 118.59 138.07 118.80
  L 147.47 124.31
  Q 147.99 124.62 148.41 124.19
  C 149.98 122.62 155.45 114.23 151.31 113.35
  C 147.68 112.59 144.40 111.57 140.68 111.21
  Q 140.31 111.18 140.34 110.81
  L 140.56 107.75
  A 0.73 0.73 0.0 0 1 141.08 107.11
  L 150.60 104.34
  A 1.94 1.94 0.0 0 0 151.82 101.67
  L 147.99 93.27
  Q 147.20 91.55 145.68 92.67
  L 138.02 98.33
  A 0.67 0.67 0.0 0 1 137.14 98.26
  L 136.32 97.44
  Q 135.91 97.03 136.38 96.69
  C 139.09 94.74 144.33 89.22 139.29 86.46
  Q 135.91 84.60 131.88 82.90
  A 1.45 1.45 0.0 0 0 129.91 83.92
  L 127.85 93.29
  A 1.82 1.82 0.0 0 1 124.27 93.16
  L 123.00 84.27
  A 2.02 2.01 78.1 0 0 120.47 82.61
  L 111.14 85.17
  Q 111.04 85.20 111.02 85.10
  Q 110.97 84.92 111.08 84.86
  C 117.21 81.62 131.38 80.30 137.25 83.09
  C 147.48 87.95 152.63 95.95 153.39 107.05
  C 153.92 114.79 153.85 119.99 149.91 126.08
  C 141.40 139.26 117.51 143.03 106.61 131.11
  C 104.48 128.77 101.45 125.44 100.36 122.47
  A 0.23 0.23 0.0 0 1 100.78 122.27
  L 102.25 124.79
  Z"
/>
<path fill="#ffffff" d="
  M 120.87 85.48
  L 122.01 93.46
  A 0.59 0.59 0.0 0 1 121.49 94.13
  L 116.61 94.70
  A 0.59 0.59 0.0 0 1 116.01 94.39
  L 112.59 87.74
  A 0.59 0.59 0.0 0 1 112.96 86.90
  L 120.14 84.99
  A 0.59 0.59 0.0 0 1 120.87 85.48
  Z"
/>
<path fill="#ffffff" d="
  M 139.41 89.00
  A 0.23 0.23 0.0 0 1 139.51 89.31
  L 139.45 89.43
  A 9.04 4.12 -62.8 0 1 131.65 95.58
  L 131.63 95.58
  A 9.04 4.12 -62.8 0 1 132.10 85.65
  L 132.16 85.54
  A 0.23 0.23 0.0 0 1 132.47 85.44
  L 139.41 89.00
  Z"
/>
<path fill="#ffffff" d="
  M 149.67 101.56
  A 0.42 0.42 0.0 0 1 149.49 102.13
  L 149.21 102.27
  A 8.76 3.42 -27.4 0 1 139.86 103.27
  L 139.47 102.52
  A 8.76 3.42 -27.4 0 1 145.67 95.46
  L 145.96 95.31
  A 0.42 0.42 0.0 0 1 146.52 95.49
  L 149.67 101.56
  Z"
/>
<path fill="#ffffff" d="
  M 102.01 113.19
  A 0.27 0.27 0.0 0 1 101.95 113.72
  Q 99.84 113.64 98.62 115.37
  A 1.02 1.01 -38.1 0 0 98.50 116.33
  Q 98.82 117.13 98.76 117.99
  A 0.28 0.28 0.0 0 1 98.21 118.00
  L 97.67 113.04
  A 0.47 0.47 0.0 0 1 98.21 112.53
  L 102.01 113.19
  Z"
/>
<path fill="#ffffff" d="
  M 141.46 118.76
  A 1.47 1.47 0.0 0 1 140.77 116.80
  L 141.71 114.84
  A 2.91 2.71 -64.5 0 1 145.40 113.38
  L 148.60 114.90
  A 2.91 2.71 -64.5 0 1 149.79 118.69
  L 148.85 120.66
  A 1.47 1.47 0.0 0 1 146.89 121.36
  L 141.46 118.76
  Z"
/>
<path fill="#ffffff" d="
  M 104.31 122.69
  A 0.80 0.80 0.0 0 1 103.21 122.43
  L 101.65 119.89
  A 3.28 3.16 -31.6 0 1 102.79 115.48
  L 104.34 114.53
  A 3.28 3.16 -31.6 0 1 108.79 115.50
  L 110.35 118.04
  A 0.80 0.80 0.0 0 1 110.09 119.14
  L 104.31 122.69
  Z"
/>
<path fill="#ffffff" d="
  M 134.99 124.32
  L 139.21 130.54
  A 0.77 0.77 0.0 0 1 138.87 131.68
  L 132.98 134.21
  A 0.77 0.77 0.0 0 1 131.93 133.71
  L 129.80 125.97
  A 0.77 0.77 0.0 0 1 130.34 125.02
  L 134.15 124.01
  A 0.77 0.77 0.0 0 1 134.99 124.32
  Z"
/>
<path fill="#ffffff" d="
  M 112.87 131.68
  A 0.29 0.29 0.0 0 1 112.71 131.31
  L 112.76 131.17
  A 8.14 2.23 -68.6 0 1 117.81 124.40
  L 120.58 125.49
  A 8.14 2.23 -68.6 0 1 119.69 133.88
  L 119.63 134.02
  A 0.29 0.29 0.0 0 1 119.26 134.19
  L 112.87 131.68
  Z"
/>
<path fill="#020202" d="
  M 135.81 165.94
  C 139.26 166.79 141.62 163.66 144.65 162.57
  Q 155.59 158.63 166.04 153.15
  A 0.57 0.57 0.0 0 1 166.69 153.25
  Q 167.42 153.97 166.36 154.53
  Q 156.54 159.75 146.13 163.59
  C 141.44 165.32 139.75 168.65 133.97 167.03
  Q 109.37 160.16 85.07 153.02
  A 0.55 0.55 0.0 0 1 84.71 152.31
  Q 84.99 151.50 85.99 151.80
  Q 123.74 162.97 135.81 165.94
  Z"
/>
<path fill="#020202" d="
  M 113.39 168.03
  C 122.73 170.58 132.31 173.25 140.57 172.97
  Q 141.10 172.95 141.54 172.63
  Q 147.12 168.60 153.76 166.42
  Q 154.27 166.25 154.25 166.79
  Q 154.25 166.94 154.25 167.09
  Q 154.25 167.58 153.82 167.78
  Q 150.34 169.42 146.84 170.99
  C 144.28 172.13 142.51 174.84 139.18 174.70
  C 127.95 174.23 115.34 169.42 103.29 167.57
  C 99.48 166.98 96.15 163.23 93.55 160.60
  Q 93.18 160.23 93.25 159.71
  L 93.30 159.32
  A 0.33 0.33 0.0 0 1 93.85 159.12
  L 101.22 165.60
  A 0.72 0.72 0.0 0 0 101.57 165.78
  C 105.54 166.55 109.58 167.00 113.39 168.03
  Z"
/>
<path fill="#ffffff" d="
  M 116.76 188.66
  A 0.30 0.30 0.0 0 1 116.36 188.52
  L 116.00 187.74
  A 6.50 6.40 64.7 0 1 119.01 179.13
  L 119.04 179.11
  A 6.50 6.40 64.7 0 1 127.61 182.25
  L 127.97 183.03
  A 0.30 0.30 0.0 0 1 127.83 183.43
  L 116.76 188.66
  Z"
/>
</svg>
