<?xml version="1.0" encoding="UTF-8" standalone="no"?>
<!DOCTYPE svg PUBLIC "-//W3C//DTD SVG 1.1//EN" "http://www.w3.org/Graphics/SVG/1.1/DTD/svg11.dtd">
<svg xmlns="http://www.w3.org/2000/svg" version="1.1" viewBox="0.00 0.00 250.00 256.00">
<g stroke-width="2.00" fill="none" stroke-linecap="butt">
<path stroke="#803280" vector-effect="non-scaling-stroke" d="
  M 170.43 82.95
  C 173.09 87.23 166.23 88.25 163.99 90.18
  A 1.66 1.66 0.0 0 0 165.78 92.94
  Q 169.27 91.29 173.22 90.78
  Q 173.94 90.68 174.23 91.35
  C 176.26 95.88 178.32 102.15 176.41 106.99
  Q 176.25 107.40 175.81 107.42
  L 167.35 107.77
  A 0.66 0.65 -3.4 0 0 166.72 108.47
  L 166.82 110.20
  Q 166.86 110.86 167.53 110.82
  C 170.69 110.66 176.66 109.98 177.05 113.25
  C 177.48 116.89 176.05 122.64 174.55 125.89
  A 1.98 1.97 -72.1 0 1 172.40 127.00
  Q 169.38 126.43 166.52 125.21
  Q 165.93 124.96 165.43 125.00
  Q 164.56 125.07 164.38 125.45
  A 2.32 2.15 27.4 0 0 165.42 128.35
  L 171.20 131.52
  Q 171.66 131.76 171.56 132.28
  C 170.59 137.15 165.42 143.66 160.77 145.45
  A 1.72 1.70 59.5 0 1 158.84 144.94
  L 155.35 140.72
  Q 154.78 140.04 154.00 140.45
  Q 147.31 143.99 150.24 146.30"
/>
<path stroke="#013281" vector-effect="non-scaling-stroke" d="
  M 150.24 146.30
  C 151.82 149.71 163.24 151.90 166.97 152.95
  A 0.43 0.43 0.0 0 1 167.01 153.77
  L 136.85 165.30
  Q 136.35 165.49 135.83 165.35
  L 84.97 151.16
  Q 84.43 151.01 84.11 151.45
  L 83.47 152.33
  A 0.70 0.69 -64.2 0 0 83.84 153.41
  L 135.86 168.26
  Q 136.43 168.42 136.98 168.21
  L 167.88 156.19
  Q 168.37 155.99 168.50 155.48
  L 168.84 154.11
  Q 168.95 153.66 169.41 153.73
  L 171.42 154.07
  A 0.68 0.68 0.0 0 1 171.76 155.24
  L 158.83 167.11
  Q 158.53 167.38 158.51 167.78
  L 158.14 174.43
  A 0.66 0.65 -17.2 0 1 157.89 174.90
  L 154.54 177.43
  Q 153.84 177.96 153.76 177.08
  L 153.42 173.37
  Q 153.30 172.11 152.11 172.54
  Q 149.23 173.58 146.93 175.61
  A 1.17 1.17 0.0 0 0 146.53 176.49
  L 146.49 184.13
  Q 146.48 184.67 146.07 185.00
  L 141.83 188.46
  A 0.51 0.51 0.0 0 1 141.00 188.07
  L 140.99 178.09
  A 0.74 0.73 11.4 0 0 140.53 177.41
  Q 138.41 176.57 136.33 177.35
  A 0.83 0.83 0.0 0 0 135.79 178.13
  L 135.67 188.89
  A 0.53 0.53 0.0 0 1 135.11 189.42
  L 129.68 189.18
  A 0.48 0.48 0.0 0 1 129.22 188.68
  Q 129.40 183.58 128.65 180.82
  C 127.34 176.00 121.41 174.49 117.52 176.60
  C 113.57 178.74 113.14 184.08 113.66 188.12
  A 0.73 0.72 85.7 0 1 112.96 188.94
  L 103.53 189.12
  Q 102.94 189.13 102.94 188.53
  L 103.13 175.25
  Q 103.14 174.74 102.77 174.40
  L 79.77 152.80
  Q 79.41 152.46 79.57 152.00
  C 81.03 147.70 86.38 147.64 91.00 147.21
  Q 91.61 147.15 91.46 146.56
  Q 91.24 145.69 90.34 145.30"
/>
<path stroke="#803280" vector-effect="non-scaling-stroke" d="
  M 90.34 145.30
  L 85.02 139.26
  A 2.60 2.60 0.0 0 1 85.39 135.48
  L 90.05 131.92
  Q 90.45 131.61 90.28 131.14
  L 89.17 128.07
  A 0.84 0.83 70.6 0 0 88.11 127.56
  L 80.34 130.21
  A 0.65 0.65 0.0 0 1 79.52 129.83
  Q 77.00 123.31 75.56 116.48
  C 74.49 111.40 80.31 111.69 84.26 111.64
  Q 84.94 111.63 84.95 110.95
  L 85.01 108.17
  A 0.66 0.66 0.0 0 0 84.35 107.50
  L 77.35 107.50
  A 2.30 2.29 -85.0 0 1 75.09 104.81
  L 76.39 97.39
  A 0.62 0.61 -78.2 0 0 75.94 96.69
  Q 68.35 94.72 62.52 89.46
  Q 59.80 87.01 55.84 81.74"
/>
<path stroke="#800001" vector-effect="non-scaling-stroke" d="
  M 90.34 145.30
  Q 81.27 145.04 77.43 151.34
  A 1.75 1.75 0.0 0 0 77.74 153.54
  L 101.12 175.14
  A 1.19 1.18 -68.8 0 1 101.50 176.01
  L 101.50 189.73
  A 0.98 0.98 0.0 0 0 102.45 190.71
  Q 107.91 190.92 113.25 190.46
  C 118.23 190.03 122.33 187.42 126.63 185.04
  A 0.62 0.62 0.0 0 1 127.55 185.55
  L 127.84 190.17
  A 0.89 0.88 -1.7 0 0 128.73 191.00
  L 136.25 191.00
  A 1.00 1.00 0.0 0 0 137.25 190.00
  L 137.25 179.55
  A 0.78 0.78 0.0 0 1 138.00 178.77
  L 138.81 178.75
  A 0.56 0.56 0.0 0 1 139.40 179.31
  L 139.49 190.22
  A 0.82 0.82 0.0 0 0 140.81 190.87
  Q 143.77 188.62 147.03 186.55
  C 151.27 183.86 145.71 175.00 151.08 174.91
  Q 151.66 174.90 151.72 175.48
  L 152.22 180.16
  A 0.44 0.44 0.0 0 0 152.92 180.46
  L 159.45 175.38
  A 0.93 0.92 74.9 0 0 159.79 174.78
  L 160.72 167.38
  A 0.50 0.48 -17.4 0 1 160.90 167.05
  Q 168.35 161.06 174.68 153.89
  Q 175.04 153.47 174.51 153.32
  L 150.24 146.30"
/>
<path stroke="#80b1ff" vector-effect="non-scaling-stroke" d="
  M 46.92 59.66
  C 47.31 61.64 45.90 62.38 47.03 64.77
  Q 50.49 72.10 57.37 74.71
  Q 57.85 74.89 58.00 75.39
  C 61.89 87.96 74.40 93.89 86.70 95.34
  Q 87.24 95.40 87.42 95.91
  C 88.71 99.62 82.88 98.77 81.13 98.72
  Q 80.54 98.70 80.42 99.28
  L 79.68 103.00
  A 0.60 0.59 6.5 0 0 80.25 103.71
  L 87.13 103.82
  A 1.29 1.29 0.0 0 1 88.39 105.14
  L 88.19 113.56
  A 1.67 1.66 89.1 0 1 86.63 115.18
  L 80.66 115.55
  A 0.86 0.86 0.0 0 0 79.89 116.64
  L 82.10 124.47
  A 0.85 0.85 0.0 0 0 83.19 125.03
  L 89.76 122.68
  Q 90.34 122.48 90.56 123.04
  Q 92.39 127.59 95.48 131.41
  A 1.34 1.34 0.0 0 1 95.24 133.33
  L 89.93 137.23
  Q 89.33 137.68 89.85 138.22
  L 95.12 143.79
  Q 95.66 144.36 96.18 143.77
  L 100.72 138.64
  A 0.62 0.62 0.0 0 1 101.52 138.53
  L 110.33 144.18
  Q 110.81 144.49 110.53 144.99
  L 107.45 150.62
  A 0.65 0.65 0.0 0 0 107.82 151.55
  L 117.76 154.74
  A 1.00 1.00 0.0 0 0 119.06 153.90
  L 119.73 148.15
  Q 119.90 146.70 121.35 146.84
  Q 128.20 147.50 134.87 146.16
  A 0.77 0.76 -11.7 0 1 135.76 146.74
  L 136.97 152.25
  A 1.60 1.60 0.0 0 0 139.14 153.39
  L 146.98 150.21
  A 0.77 0.77 0.0 0 0 147.33 149.07
  L 143.77 143.75
  A 0.71 0.70 -31.9 0 1 144.01 142.74
  Q 149.41 139.73 153.58 135.18
  Q 153.98 134.75 154.44 135.10
  L 159.84 139.13
  A 1.26 1.26 0.0 0 0 161.61 138.88
  L 165.29 133.99
  A 0.64 0.63 34.7 0 0 165.12 133.07
  L 159.29 129.37
  Q 158.82 129.08 159.03 128.57
  L 161.96 121.28
  A 1.68 1.68 0.0 0 1 163.94 120.28
  L 169.87 121.78
  A 1.10 1.10 0.0 0 0 171.23 120.86
  L 171.83 116.33
  Q 171.94 115.54 171.15 115.39
  L 164.24 114.05
  Q 163.75 113.96 163.75 113.46
  L 163.75 105.55
  A 1.33 1.32 87.1 0 1 164.94 104.23
  L 171.53 103.59
  Q 172.10 103.54 172.02 102.97
  L 171.24 96.95
  A 1.01 1.00 -13.4 0 0 169.91 96.14
  L 164.41 98.11
  A 2.22 2.22 0.0 0 1 161.64 96.93
  L 158.64 90.19
  Q 158.43 89.74 158.77 89.37
  Q 161.05 86.84 164.22 85.54
  A 1.58 1.58 0.0 0 0 164.82 83.05
  L 161.32 78.95
  Q 160.88 78.44 160.36 78.85
  L 154.35 83.51
  Q 153.94 83.82 153.54 83.51
  L 147.09 78.35
  Q 146.57 77.93 146.90 77.36
  L 150.76 70.42
  Q 151.06 69.88 150.52 69.60
  L 144.81 66.62
  A 1.38 1.38 0.0 0 0 142.87 67.40
  L 140.55 74.18
  A 0.63 0.63 0.0 0 1 139.79 74.59
  L 131.46 72.39
  Q 130.92 72.25 130.91 71.69
  L 130.80 63.77
  A 0.79 0.78 89.2 0 0 130.02 63.00
  L 122.91 63.00
  A 0.58 0.57 -1.0 0 0 122.33 63.59
  L 122.56 71.47
  Q 122.58 72.08 121.98 72.22
  L 113.55 74.13
  A 0.55 0.55 0.0 0 1 112.95 73.87
  L 108.99 66.96
  A 1.20 1.20 0.0 0 0 106.75 67.47
  Q 106.55 70.47 108.53 72.75
  Q 110.04 74.47 108.03 75.75
  A 1.70 1.69 -40.9 0 1 106.02 75.61
  C 100.54 70.91 104.81 60.37 102.01 53.65
  C 96.05 39.36 76.66 40.00 64.74 34.60
  Q 61.71 33.22 56.82 31.18
  C 49.80 28.24 42.11 22.62 34.63 18.98
  Q 30.44 16.95 26.33 15.13
  A 1.48 1.48 0.0 0 0 24.36 15.91
  C 22.16 21.26 24.39 27.53 26.63 33.68
  C 28.00 37.43 30.73 39.06 34.24 40.31
  Q 34.77 40.50 34.48 40.98
  C 32.24 44.71 34.22 47.12 36.58 50.69
  Q 40.20 56.17 46.35 58.94
  Q 46.82 59.16 46.92 59.66"
/>
<path stroke="#80b1ff" vector-effect="non-scaling-stroke" d="
  M 156.79 69.41
  C 155.63 72.30 151.75 75.15 152.01 77.32
  A 1.52 1.52 0.0 0 0 154.51 78.30
  L 160.68 73.02
  A 1.14 1.13 36.2 0 1 161.88 72.84
  Q 164.51 74.00 166.07 76.35
  Q 166.37 76.79 166.82 76.50
  C 172.71 72.76 182.87 64.61 183.96 58.25
  C 185.47 49.35 181.67 39.19 171.90 37.42
  Q 162.36 35.69 152.75 34.50
  C 138.14 32.69 119.68 28.70 103.89 22.06
  A 0.81 0.80 5.1 0 0 102.79 22.97
  C 104.56 31.09 113.88 34.24 121.37 36.56
  C 125.67 37.90 132.06 38.46 137.12 40.63
  Q 142.60 42.98 136.63 42.84
  C 130.63 42.71 123.77 40.43 118.03 38.77
  A 0.94 0.94 0.0 0 0 116.83 39.76
  Q 116.86 40.04 117.52 40.44
  Q 124.52 44.71 131.87 48.39
  C 137.57 51.24 146.39 46.95 151.66 52.29
  A 0.73 0.72 -19.6 0 1 151.07 53.52
  L 134.94 52.06
  A 0.93 0.92 80.2 0 0 134.02 53.37
  Q 137.39 60.79 134.90 68.65
  A 0.57 0.56 -79.3 0 0 135.39 69.38
  L 137.13 69.52
  Q 137.62 69.56 137.88 69.13
  Q 138.96 67.35 138.73 65.28
  A 1.31 1.30 63.3 0 1 139.07 64.24
  L 142.18 60.88
  Q 142.57 60.46 143.13 60.61
  Q 150.90 62.77 156.59 68.43
  A 0.92 0.91 -56.9 0 1 156.79 69.41"
/>
<path stroke="#013281" vector-effect="non-scaling-stroke" d="
  M 104.51 144.89
  Q 101.57 142.91 99.72 146.04
  A 0.30 0.29 10.9 0 0 100.02 146.48
  L 104.29 145.84
  A 0.52 0.52 0.0 0 0 104.51 144.89"
/>
<path stroke="#013281" vector-effect="non-scaling-stroke" d="
  M 136.36 172.29
  C 124.48 170.11 112.75 166.92 100.82 165.07
  Q 100.33 164.99 99.95 164.68
  C 98.28 163.32 95.13 159.57 93.09 159.34
  A 0.62 0.62 0.0 0 0 92.58 160.38
  L 99.04 167.14
  A 0.61 0.60 -14.8 0 0 99.36 167.32
  L 138.53 175.49
  Q 138.88 175.56 139.21 175.42
  L 153.84 169.15
  Q 154.30 168.95 154.59 168.54
  Q 155.10 167.82 155.01 166.90
  A 0.91 0.91 0.0 0 0 153.65 166.21
  Q 147.43 169.74 140.69 172.01
  Q 138.62 172.70 136.36 172.29"
/>
<path stroke="#80b1ff" vector-effect="non-scaling-stroke" d="
  M 48.93 33.72
  C 43.72 31.64 38.61 28.06 33.74 25.23
  Q 30.86 23.56 28.29 21.64
  A 0.31 0.30 14.9 0 0 27.80 21.92
  C 30.27 40.61 56.06 43.36 70.36 47.02
  C 74.14 47.99 73.36 52.55 70.25 52.27
  Q 54.34 50.86 39.67 44.49
  A 0.47 0.46 11.8 0 0 39.02 44.91
  C 38.96 50.48 46.03 53.30 50.27 55.12
  Q 65.75 61.75 82.76 60.93
  C 87.40 60.71 86.94 69.35 78.81 68.24
  C 70.10 67.06 61.12 66.45 52.77 63.57
  A 0.50 0.50 0.0 0 0 52.20 64.33
  C 57.57 72.10 64.95 72.41 73.42 73.55
  C 77.50 74.10 89.43 72.50 91.58 76.96
  C 95.16 84.35 67.83 79.08 65.22 78.62
  Q 62.91 78.22 64.34 80.07
  C 71.54 89.39 85.43 91.77 96.73 91.15
  C 99.42 91.00 100.67 92.38 100.99 94.88
  A 1.24 1.21 -31.0 0 1 100.75 95.79
  Q 98.12 99.23 93.73 98.42
  A 0.94 0.94 0.0 0 0 92.90 100.02
  C 99.34 106.36 105.82 108.00 115.47 108.85
  Q 116.00 108.90 116.09 109.42
  Q 117.84 120.03 127.83 118.92
  Q 130.29 118.65 132.01 116.89
  C 140.79 107.93 129.94 95.45 119.46 102.54
  Q 119.04 102.82 118.56 102.66
  C 112.88 100.82 107.80 93.13 105.23 88.08
  C 103.09 83.89 102.60 78.81 101.32 74.03
  Q 100.20 69.83 99.67 66.36
  C 98.87 61.11 98.62 53.86 94.20 50.30
  C 86.94 44.47 76.95 43.81 67.99 42.04
  Q 64.16 41.28 51.52 35.54
  C 50.53 35.10 50.01 34.14 48.93 33.72"
/>
<path stroke="#808081" vector-effect="non-scaling-stroke" d="
  M 110.12 86.31
  Q 113.24 92.53 119.00 96.97"
/>
<path stroke="#80b1ff" vector-effect="non-scaling-stroke" d="
  M 119.00 96.97
  Q 125.93 95.14 131.23 97.55
  C 140.84 101.91 142.32 115.08 132.98 121.14
  C 129.82 123.18 121.81 123.19 118.64 121.27
  Q 114.04 118.48 111.11 112.93"
/>
<path stroke="#808081" vector-effect="non-scaling-stroke" d="
  M 111.11 112.93
  Q 106.06 113.73 101.84 112.75"
/>
<path stroke="#80b1ff" vector-effect="non-scaling-stroke" d="
  M 101.84 112.75
  L 96.38 110.02
  A 0.75 0.75 0.0 0 0 95.30 110.75
  Q 96.32 125.47 106.86 133.65
  C 122.80 146.01 147.53 139.70 154.14 120.54
  C 162.82 95.37 140.07 72.09 114.81 81.06
  Q 108.91 83.15 110.12 86.31"
/>
<path stroke="#013281" vector-effect="non-scaling-stroke" d="
  M 101.84 112.75
  Q 100.73 114.06 99.15 114.19
  A 1.30 1.30 0.0 0 0 98.06 115.99
  L 101.78 124.87
  A 1.69 1.69 0.0 0 0 104.32 125.59
  L 112.87 119.49
  A 1.14 1.14 0.0 0 0 113.04 117.78
  Q 110.98 115.56 111.11 112.93"
/>
<path stroke="#013281" vector-effect="non-scaling-stroke" d="
  M 119.00 96.97
  L 123.55 94.59
  Q 123.99 94.37 123.92 93.88
  L 122.37 83.43
  A 1.35 1.35 0.0 0 0 120.78 82.30
  Q 115.58 83.30 110.12 86.31"
/>
<path stroke="#013281" vector-effect="non-scaling-stroke" d="
  M 130.65 83.63
  Q 129.98 84.25 129.81 85.22
  Q 129.04 89.82 127.79 94.00
  A 1.02 1.01 -70.5 0 0 128.36 95.22
  L 134.31 97.81
  A 0.83 0.82 -60.1 0 0 135.30 97.54
  Q 138.13 93.74 140.97 89.96
  C 143.74 86.26 133.85 83.48 132.11 83.20
  Q 131.28 83.06 130.65 83.63"
/>
<path stroke="#013281" vector-effect="non-scaling-stroke" d="
  M 152.10 101.16
  L 148.36 93.95
  A 1.79 1.79 0.0 0 0 145.95 93.18
  L 145.86 93.23
  A 11.09 3.80 -27.4 0 0 137.76 101.71
  L 139.65 105.35
  A 11.09 3.80 -27.4 0 0 151.25 103.62
  L 151.33 103.57
  A 1.79 1.79 0.0 0 0 152.10 101.16"
/>
<path stroke="#013281" vector-effect="non-scaling-stroke" d="
  M 151.55 112.82
  L 141.67 111.31
  A 0.88 0.88 0.0 0 0 140.73 111.85
  L 138.55 117.30
  A 1.65 1.65 0.0 0 0 139.25 119.34
  L 147.61 124.18
  A 1.29 1.29 0.0 0 0 149.34 123.77
  Q 152.10 119.52 152.79 114.48
  A 1.48 1.48 0.0 0 0 151.55 112.82"
/>
<path stroke="#013281" vector-effect="non-scaling-stroke" d="
  M 133.06 136.14
  L 141.17 132.15
  A 1.34 1.34 0.0 0 0 141.79 130.36
  L 141.72 130.23
  A 11.37 3.58 63.8 0 0 133.49 121.60
  L 129.40 123.62
  A 11.37 3.58 63.8 0 0 131.20 135.40
  L 131.27 135.53
  A 1.34 1.34 0.0 0 0 133.06 136.14"
/>
<path stroke="#013281" vector-effect="non-scaling-stroke" d="
  M 111.41 133.73
  L 118.72 136.62
  A 1.95 1.95 0.0 0 0 121.25 135.52
  L 121.29 135.42
  A 10.96 3.20 -68.4 0 0 122.35 124.05
  L 117.36 122.08
  A 10.96 3.20 -68.4 0 0 110.35 131.09
  L 110.31 131.20
  A 1.95 1.95 0.0 0 0 111.41 133.73"
/>
<path stroke="#800001" vector-effect="non-scaling-stroke" d="
  M 119.16 84.49
  L 113.32 86.61
  A 0.96 0.96 0.0 0 0 112.74 87.84
  L 112.97 88.47
  A 7.64 2.72 70.1 0 0 118.13 94.73
  L 120.67 93.81
  A 7.64 2.72 70.1 0 0 120.63 85.70
  L 120.39 85.06
  A 0.96 0.96 0.0 0 0 119.16 84.49"
/>
<path stroke="#800001" vector-effect="non-scaling-stroke" d="
  M 138.80 87.92
  Q 135.86 85.76 132.26 85.23
  A 0.67 0.67 0.0 0 0 131.50 85.77
  L 130.11 93.39
  A 0.69 0.68 18.5 0 0 130.48 94.12
  L 133.63 95.69
  A 0.74 0.74 0.0 0 0 134.56 95.46
  L 139.01 89.25
  A 0.96 0.96 0.0 0 0 138.80 87.92"
/>
<path stroke="#800001" vector-effect="non-scaling-stroke" d="
  M 149.99 101.30
  L 147.57 96.03
  A 0.87 0.87 0.0 0 0 146.42 95.60
  L 146.27 95.67
  A 8.21 2.66 -24.6 0 0 139.92 101.50
  L 140.84 103.52
  A 8.21 2.66 -24.6 0 0 149.41 102.52
  L 149.56 102.46
  A 0.87 0.87 0.0 0 0 149.99 101.30"
/>
<path stroke="#800001" vector-effect="non-scaling-stroke" d="
  M 148.95 121.08
  L 150.70 116.18
  A 1.04 1.04 0.0 0 0 150.07 114.85
  L 149.91 114.79
  A 7.89 2.38 19.6 0 0 141.68 114.39
  L 140.83 116.76
  A 7.89 2.38 19.6 0 0 147.47 121.65
  L 147.63 121.71
  A 1.04 1.04 0.0 0 0 148.95 121.08"
/>
<path stroke="#800001" vector-effect="non-scaling-stroke" d="
  M 100.37 117.35
  L 102.43 122.34
  A 1.34 1.34 0.0 0 0 104.18 123.07
  L 104.47 122.95
  A 7.79 3.05 -22.5 0 0 110.50 117.15
  L 109.74 115.32
  A 7.79 3.05 -22.5 0 0 101.38 115.48
  L 101.09 115.60
  A 1.34 1.34 0.0 0 0 100.37 117.35"
/>
<path stroke="#800001" vector-effect="non-scaling-stroke" d="
  M 134.12 133.74
  L 138.40 131.75
  A 1.53 1.53 0.0 0 0 139.14 129.71
  L 139.03 129.47
  A 7.72 3.53 65.0 0 0 132.56 123.96
  L 131.91 124.27
  A 7.72 3.53 65.0 0 0 131.98 132.76
  L 132.09 133.00
  A 1.53 1.53 0.0 0 0 134.12 133.74"
/>
<path stroke="#800001" vector-effect="non-scaling-stroke" d="
  M 113.18 132.56
  L 118.43 134.44
  A 1.20 1.20 0.0 0 0 119.97 133.72
  L 120.01 133.59
  A 8.12 2.84 -70.3 0 0 120.08 124.98
  L 117.91 124.21
  A 8.12 2.84 -70.3 0 0 112.50 130.90
  L 112.45 131.03
  A 1.20 1.20 0.0 0 0 113.18 132.56"
/>
<path stroke="#013281" vector-effect="non-scaling-stroke" d="
  M 125.50 183.71
  C 127.95 177.53 114.82 176.21 116.90 187.92
  Q 116.99 188.39 117.42 188.18
  L 124.83 184.44
  Q 125.30 184.20 125.50 183.71"
/>
</g>
<path fill="#0063ff" d="
  M 170.43 82.95
  C 173.09 87.23 166.23 88.25 163.99 90.18
  A 1.66 1.66 0.0 0 0 165.78 92.94
  Q 169.27 91.29 173.22 90.78
  Q 173.94 90.68 174.23 91.35
  C 176.26 95.88 178.32 102.15 176.41 106.99
  Q 176.25 107.40 175.81 107.42
  L 167.35 107.77
  A 0.66 0.65 -3.4 0 0 166.72 108.47
  L 166.82 110.20
  Q 166.86 110.86 167.53 110.82
  C 170.69 110.66 176.66 109.98 177.05 113.25
  C 177.48 116.89 176.05 122.64 174.55 125.89
  A 1.98 1.97 -72.1 0 1 172.40 127.00
  Q 169.38 126.43 166.52 125.21
  Q 165.93 124.96 165.43 125.00
  Q 164.56 125.07 164.38 125.45
  A 2.32 2.15 27.4 0 0 165.42 128.35
  L 171.20 131.52
  Q 171.66 131.76 171.56 132.28
  C 170.59 137.15 165.42 143.66 160.77 145.45
  A 1.72 1.70 59.5 0 1 158.84 144.94
  L 155.35 140.72
  Q 154.78 140.04 154.00 140.45
  Q 147.31 143.99 150.24 146.30
  C 151.82 149.71 163.24 151.90 166.97 152.95
  A 0.43 0.43 0.0 0 1 167.01 153.77
  L 136.85 165.30
  Q 136.35 165.49 135.83 165.35
  L 84.97 151.16
  Q 84.43 151.01 84.11 151.45
  L 83.47 152.33
  A 0.70 0.69 -64.2 0 0 83.84 153.41
  L 135.86 168.26
  Q 136.43 168.42 136.98 168.21
  L 167.88 156.19
  Q 168.37 155.99 168.50 155.48
  L 168.84 154.11
  Q 168.95 153.66 169.41 153.73
  L 171.42 154.07
  A 0.68 0.68 0.0 0 1 171.76 155.24
  L 158.83 167.11
  Q 158.53 167.38 158.51 167.78
  L 158.14 174.43
  A 0.66 0.65 -17.2 0 1 157.89 174.90
  L 154.54 177.43
  Q 153.84 177.96 153.76 177.08
  L 153.42 173.37
  Q 153.30 172.11 152.11 172.54
  Q 149.23 173.58 146.93 175.61
  A 1.17 1.17 0.0 0 0 146.53 176.49
  L 146.49 184.13
  Q 146.48 184.67 146.07 185.00
  L 141.83 188.46
  A 0.51 0.51 0.0 0 1 141.00 188.07
  L 140.99 178.09
  A 0.74 0.73 11.4 0 0 140.53 177.41
  Q 138.41 176.57 136.33 177.35
  A 0.83 0.83 0.0 0 0 135.79 178.13
  L 135.67 188.89
  A 0.53 0.53 0.0 0 1 135.11 189.42
  L 129.68 189.18
  A 0.48 0.48 0.0 0 1 129.22 188.68
  Q 129.40 183.58 128.65 180.82
  C 127.34 176.00 121.41 174.49 117.52 176.60
  C 113.57 178.74 113.14 184.08 113.66 188.12
  A 0.73 0.72 85.7 0 1 112.96 188.94
  L 103.53 189.12
  Q 102.94 189.13 102.94 188.53
  L 103.13 175.25
  Q 103.14 174.74 102.77 174.40
  L 79.77 152.80
  Q 79.41 152.46 79.57 152.00
  C 81.03 147.70 86.38 147.64 91.00 147.21
  Q 91.61 147.15 91.46 146.56
  Q 91.24 145.69 90.34 145.30
  L 85.02 139.26
  A 2.60 2.60 0.0 0 1 85.39 135.48
  L 90.05 131.92
  Q 90.45 131.61 90.28 131.14
  L 89.17 128.07
  A 0.84 0.83 70.6 0 0 88.11 127.56
  L 80.34 130.21
  A 0.65 0.65 0.0 0 1 79.52 129.83
  Q 77.00 123.31 75.56 116.48
  C 74.49 111.40 80.31 111.69 84.26 111.64
  Q 84.94 111.63 84.95 110.95
  L 85.01 108.17
  A 0.66 0.66 0.0 0 0 84.35 107.50
  L 77.35 107.50
  A 2.30 2.29 -85.0 0 1 75.09 104.81
  L 76.39 97.39
  A 0.62 0.61 -78.2 0 0 75.94 96.69
  Q 68.35 94.72 62.52 89.46
  Q 59.80 87.01 55.84 81.74
  C 56.25 79.58 56.35 78.38 54.39 77.01
  Q 49.31 73.44 45.47 68.61
  C 43.77 66.48 43.84 64.27 43.26 61.69
  Q 43.15 61.17 42.73 60.86
  C 37.42 56.87 30.78 51.71 30.36 44.60
  A 2.04 2.03 19.2 0 0 29.68 43.20
  C 24.56 38.63 23.60 33.47 21.47 27.29
  C 20.24 23.69 20.38 20.64 20.50 16.98
  A 1.46 1.45 66.5 0 1 20.84 16.10
  C 22.33 14.37 23.06 11.96 25.74 11.58
  A 1.26 1.24 -32.3 0 1 26.57 11.76
  C 30.50 14.29 34.46 16.03 38.71 18.62
  C 42.06 20.66 45.69 21.83 48.94 23.75
  Q 55.16 27.42 62.75 30.16
  C 72.51 33.68 80.32 36.46 88.88 38.69
  C 100.05 41.60 105.67 48.86 105.51 60.47
  A 1.60 1.59 2.3 0 0 107.00 62.08
  C 113.80 62.55 110.82 70.83 116.07 70.45
  C 121.23 70.08 118.96 62.94 118.78 59.85
  A 0.65 0.64 -1.6 0 1 119.44 59.16
  L 130.64 59.29
  Q 131.18 59.30 131.59 58.95
  C 135.32 55.75 127.81 49.64 125.04 48.45
  C 111.80 42.76 98.47 31.15 98.26 15.52
  A 0.50 0.50 0.0 0 1 99.00 15.08
  C 121.28 27.10 146.06 30.11 170.58 33.95
  C 180.26 35.47 185.70 39.51 187.46 49.71
  C 188.45 55.51 187.63 60.94 184.27 65.76
  C 180.22 71.59 171.53 73.88 168.38 79.58
  Q 168.13 80.03 168.33 80.50
  Q 168.96 81.97 170.43 82.95
  Z
  M 46.92 59.66
  C 47.31 61.64 45.90 62.38 47.03 64.77
  Q 50.49 72.10 57.37 74.71
  Q 57.85 74.89 58.00 75.39
  C 61.89 87.96 74.40 93.89 86.70 95.34
  Q 87.24 95.40 87.42 95.91
  C 88.71 99.62 82.88 98.77 81.13 98.72
  Q 80.54 98.70 80.42 99.28
  L 79.68 103.00
  A 0.60 0.59 6.5 0 0 80.25 103.71
  L 87.13 103.82
  A 1.29 1.29 0.0 0 1 88.39 105.14
  L 88.19 113.56
  A 1.67 1.66 89.1 0 1 86.63 115.18
  L 80.66 115.55
  A 0.86 0.86 0.0 0 0 79.89 116.64
  L 82.10 124.47
  A 0.85 0.85 0.0 0 0 83.19 125.03
  L 89.76 122.68
  Q 90.34 122.48 90.56 123.04
  Q 92.39 127.59 95.48 131.41
  A 1.34 1.34 0.0 0 1 95.24 133.33
  L 89.93 137.23
  Q 89.33 137.68 89.85 138.22
  L 95.12 143.79
  Q 95.66 144.36 96.18 143.77
  L 100.72 138.64
  A 0.62 0.62 0.0 0 1 101.52 138.53
  L 110.33 144.18
  Q 110.81 144.49 110.53 144.99
  L 107.45 150.62
  A 0.65 0.65 0.0 0 0 107.82 151.55
  L 117.76 154.74
  A 1.00 1.00 0.0 0 0 119.06 153.90
  L 119.73 148.15
  Q 119.90 146.70 121.35 146.84
  Q 128.20 147.50 134.87 146.16
  A 0.77 0.76 -11.7 0 1 135.76 146.74
  L 136.97 152.25
  A 1.60 1.60 0.0 0 0 139.14 153.39
  L 146.98 150.21
  A 0.77 0.77 0.0 0 0 147.33 149.07
  L 143.77 143.75
  A 0.71 0.70 -31.9 0 1 144.01 142.74
  Q 149.41 139.73 153.58 135.18
  Q 153.98 134.75 154.44 135.10
  L 159.84 139.13
  A 1.26 1.26 0.0 0 0 161.61 138.88
  L 165.29 133.99
  A 0.64 0.63 34.7 0 0 165.12 133.07
  L 159.29 129.37
  Q 158.82 129.08 159.03 128.57
  L 161.96 121.28
  A 1.68 1.68 0.0 0 1 163.94 120.28
  L 169.87 121.78
  A 1.10 1.10 0.0 0 0 171.23 120.86
  L 171.83 116.33
  Q 171.94 115.54 171.15 115.39
  L 164.24 114.05
  Q 163.75 113.96 163.75 113.46
  L 163.75 105.55
  A 1.33 1.32 87.1 0 1 164.94 104.23
  L 171.53 103.59
  Q 172.10 103.54 172.02 102.97
  L 171.24 96.95
  A 1.01 1.00 -13.4 0 0 169.91 96.14
  L 164.41 98.11
  A 2.22 2.22 0.0 0 1 161.64 96.93
  L 158.64 90.19
  Q 158.43 89.74 158.77 89.37
  Q 161.05 86.84 164.22 85.54
  A 1.58 1.58 0.0 0 0 164.82 83.05
  L 161.32 78.95
  Q 160.88 78.44 160.36 78.85
  L 154.35 83.51
  Q 153.94 83.82 153.54 83.51
  L 147.09 78.35
  Q 146.57 77.93 146.90 77.36
  L 150.76 70.42
  Q 151.06 69.88 150.52 69.60
  L 144.81 66.62
  A 1.38 1.38 0.0 0 0 142.87 67.40
  L 140.55 74.18
  A 0.63 0.63 0.0 0 1 139.79 74.59
  L 131.46 72.39
  Q 130.92 72.25 130.91 71.69
  L 130.80 63.77
  A 0.79 0.78 89.2 0 0 130.02 63.00
  L 122.91 63.00
  A 0.58 0.57 -1.0 0 0 122.33 63.59
  L 122.56 71.47
  Q 122.58 72.08 121.98 72.22
  L 113.55 74.13
  A 0.55 0.55 0.0 0 1 112.95 73.87
  L 108.99 66.96
  A 1.20 1.20 0.0 0 0 106.75 67.47
  Q 106.55 70.47 108.53 72.75
  Q 110.04 74.47 108.03 75.75
  A 1.70 1.69 -40.9 0 1 106.02 75.61
  C 100.54 70.91 104.81 60.37 102.01 53.65
  C 96.05 39.36 76.66 40.00 64.74 34.60
  Q 61.71 33.22 56.82 31.18
  C 49.80 28.24 42.11 22.62 34.63 18.98
  Q 30.44 16.95 26.33 15.13
  A 1.48 1.48 0.0 0 0 24.36 15.91
  C 22.16 21.26 24.39 27.53 26.63 33.68
  C 28.00 37.43 30.73 39.06 34.24 40.31
  Q 34.77 40.50 34.48 40.98
  C 32.24 44.71 34.22 47.12 36.58 50.69
  Q 40.20 56.17 46.35 58.94
  Q 46.82 59.16 46.92 59.66
  Z
  M 156.79 69.41
  C 155.63 72.30 151.75 75.15 152.01 77.32
  A 1.52 1.52 0.0 0 0 154.51 78.30
  L 160.68 73.02
  A 1.14 1.13 36.2 0 1 161.88 72.84
  Q 164.51 74.00 166.07 76.35
  Q 166.37 76.79 166.82 76.50
  C 172.71 72.76 182.87 64.61 183.96 58.25
  C 185.47 49.35 181.67 39.19 171.90 37.42
  Q 162.36 35.69 152.75 34.50
  C 138.14 32.69 119.68 28.70 103.89 22.06
  A 0.81 0.80 5.1 0 0 102.79 22.97
  C 104.56 31.09 113.88 34.24 121.37 36.56
  C 125.67 37.90 132.06 38.46 137.12 40.63
  Q 142.60 42.98 136.63 42.84
  C 130.63 42.71 123.77 40.43 118.03 38.77
  A 0.94 0.94 0.0 0 0 116.83 39.76
  Q 116.86 40.04 117.52 40.44
  Q 124.52 44.71 131.87 48.39
  C 137.57 51.24 146.39 46.95 151.66 52.29
  A 0.73 0.72 -19.6 0 1 151.07 53.52
  L 134.94 52.06
  A 0.93 0.92 80.2 0 0 134.02 53.37
  Q 137.39 60.79 134.90 68.65
  A 0.57 0.56 -79.3 0 0 135.39 69.38
  L 137.13 69.52
  Q 137.62 69.56 137.88 69.13
  Q 138.96 67.35 138.73 65.28
  A 1.31 1.30 63.3 0 1 139.07 64.24
  L 142.18 60.88
  Q 142.57 60.46 143.13 60.61
  Q 150.90 62.77 156.59 68.43
  A 0.92 0.91 -56.9 0 1 156.79 69.41
  Z
  M 104.51 144.89
  Q 101.57 142.91 99.72 146.04
  A 0.30 0.29 10.9 0 0 100.02 146.48
  L 104.29 145.84
  A 0.52 0.52 0.0 0 0 104.51 144.89
  Z
  M 136.36 172.29
  C 124.48 170.11 112.75 166.92 100.82 165.07
  Q 100.33 164.99 99.95 164.68
  C 98.28 163.32 95.13 159.57 93.09 159.34
  A 0.62 0.62 0.0 0 0 92.58 160.38
  L 99.04 167.14
  A 0.61 0.60 -14.8 0 0 99.36 167.32
  L 138.53 175.49
  Q 138.88 175.56 139.21 175.42
  L 153.84 169.15
  Q 154.30 168.95 154.59 168.54
  Q 155.10 167.82 155.01 166.90
  A 0.91 0.91 0.0 0 0 153.65 166.21
  Q 147.43 169.74 140.69 172.01
  Q 138.62 172.70 136.36 172.29
  Z"
/>
<path fill="#ffffff" d="
  M 46.35 58.94
  Q 40.20 56.17 36.58 50.69
  C 34.22 47.12 32.24 44.71 34.48 40.98
  Q 34.77 40.50 34.24 40.31
  C 30.73 39.06 28.00 37.43 26.63 33.68
  C 24.39 27.53 22.16 21.26 24.36 15.91
  A 1.48 1.48 0.0 0 1 26.33 15.13
  Q 30.44 16.95 34.63 18.98
  C 42.11 22.62 49.80 28.24 56.82 31.18
  Q 61.71 33.22 64.74 34.60
  C 76.66 40.00 96.05 39.36 102.01 53.65
  C 104.81 60.37 100.54 70.91 106.02 75.61
  A 1.70 1.69 -40.9 0 0 108.03 75.75
  Q 110.04 74.47 108.53 72.75
  Q 106.55 70.47 106.75 67.47
  A 1.20 1.20 0.0 0 1 108.99 66.96
  L 112.95 73.87
  A 0.55 0.55 0.0 0 0 113.55 74.13
  L 121.98 72.22
  Q 122.58 72.08 122.56 71.47
  L 122.33 63.59
  A 0.58 0.57 -1.0 0 1 122.91 63.00
  L 130.02 63.00
  A 0.79 0.78 89.2 0 1 130.80 63.77
  L 130.91 71.69
  Q 130.92 72.25 131.46 72.39
  L 139.79 74.59
  A 0.63 0.63 0.0 0 0 140.55 74.18
  L 142.87 67.40
  A 1.38 1.38 0.0 0 1 144.81 66.62
  L 150.52 69.60
  Q 151.06 69.88 150.76 70.42
  L 146.90 77.36
  Q 146.57 77.93 147.09 78.35
  L 153.54 83.51
  Q 153.94 83.82 154.35 83.51
  L 160.36 78.85
  Q 160.88 78.44 161.32 78.95
  L 164.82 83.05
  A 1.58 1.58 0.0 0 1 164.22 85.54
  Q 161.05 86.84 158.77 89.37
  Q 158.43 89.74 158.64 90.19
  L 161.64 96.93
  A 2.22 2.22 0.0 0 0 164.41 98.11
  L 169.91 96.14
  A 1.01 1.00 -13.4 0 1 171.24 96.95
  L 172.02 102.97
  Q 172.10 103.54 171.53 103.59
  L 164.94 104.23
  A 1.33 1.32 87.1 0 0 163.75 105.55
  L 163.75 113.46
  Q 163.75 113.96 164.24 114.05
  L 171.15 115.39
  Q 171.94 115.54 171.83 116.33
  L 171.23 120.86
  A 1.10 1.10 0.0 0 1 169.87 121.78
  L 163.94 120.28
  A 1.68 1.68 0.0 0 0 161.96 121.28
  L 159.03 128.57
  Q 158.82 129.08 159.29 129.37
  L 165.12 133.07
  A 0.64 0.63 34.7 0 1 165.29 133.99
  L 161.61 138.88
  A 1.26 1.26 0.0 0 1 159.84 139.13
  L 154.44 135.10
  Q 153.98 134.75 153.58 135.18
  Q 149.41 139.73 144.01 142.74
  A 0.71 0.70 -31.9 0 0 143.77 143.75
  L 147.33 149.07
  A 0.77 0.77 0.0 0 1 146.98 150.21
  L 139.14 153.39
  A 1.60 1.60 0.0 0 1 136.97 152.25
  L 135.76 146.74
  A 0.77 0.76 -11.7 0 0 134.87 146.16
  Q 128.20 147.50 121.35 146.84
  Q 119.90 146.70 119.73 148.15
  L 119.06 153.90
  A 1.00 1.00 0.0 0 1 117.76 154.74
  L 107.82 151.55
  A 0.65 0.65 0.0 0 1 107.45 150.62
  L 110.53 144.99
  Q 110.81 144.49 110.33 144.18
  L 101.52 138.53
  A 0.62 0.62 0.0 0 0 100.72 138.64
  L 96.18 143.77
  Q 95.66 144.36 95.12 143.79
  L 89.85 138.22
  Q 89.33 137.68 89.93 137.23
  L 95.24 133.33
  A 1.34 1.34 0.0 0 0 95.48 131.41
  Q 92.39 127.59 90.56 123.04
  Q 90.34 122.48 89.76 122.68
  L 83.19 125.03
  A 0.85 0.85 0.0 0 1 82.10 124.47
  L 79.89 116.64
  A 0.86 0.86 0.0 0 1 80.66 115.55
  L 86.63 115.18
  A 1.67 1.66 89.1 0 0 88.19 113.56
  L 88.39 105.14
  A 1.29 1.29 0.0 0 0 87.13 103.82
  L 80.25 103.71
  A 0.60 0.59 6.5 0 1 79.68 103.00
  L 80.42 99.28
  Q 80.54 98.70 81.13 98.72
  C 82.88 98.77 88.71 99.62 87.42 95.91
  Q 87.24 95.40 86.70 95.34
  C 74.40 93.89 61.89 87.96 58.00 75.39
  Q 57.85 74.89 57.37 74.71
  Q 50.49 72.10 47.03 64.77
  C 45.90 62.38 47.31 61.64 46.92 59.66
  Q 46.82 59.16 46.35 58.94
  Z
  M 48.93 33.72
  C 43.72 31.64 38.61 28.06 33.74 25.23
  Q 30.86 23.56 28.29 21.64
  A 0.31 0.30 14.9 0 0 27.80 21.92
  C 30.27 40.61 56.06 43.36 70.36 47.02
  C 74.14 47.99 73.36 52.55 70.25 52.27
  Q 54.34 50.86 39.67 44.49
  A 0.47 0.46 11.8 0 0 39.02 44.91
  C 38.96 50.48 46.03 53.30 50.27 55.12
  Q 65.75 61.75 82.76 60.93
  C 87.40 60.71 86.94 69.35 78.81 68.24
  C 70.10 67.06 61.12 66.45 52.77 63.57
  A 0.50 0.50 0.0 0 0 52.20 64.33
  C 57.57 72.10 64.95 72.41 73.42 73.55
  C 77.50 74.10 89.43 72.50 91.58 76.96
  C 95.16 84.35 67.83 79.08 65.22 78.62
  Q 62.91 78.22 64.34 80.07
  C 71.54 89.39 85.43 91.77 96.73 91.15
  C 99.42 91.00 100.67 92.38 100.99 94.88
  A 1.24 1.21 -31.0 0 1 100.75 95.79
  Q 98.12 99.23 93.73 98.42
  A 0.94 0.94 0.0 0 0 92.90 100.02
  C 99.34 106.36 105.82 108.00 115.47 108.85
  Q 116.00 108.90 116.09 109.42
  Q 117.84 120.03 127.83 118.92
  Q 130.29 118.65 132.01 116.89
  C 140.79 107.93 129.94 95.45 119.46 102.54
  Q 119.04 102.82 118.56 102.66
  C 112.88 100.82 107.80 93.13 105.23 88.08
  C 103.09 83.89 102.60 78.81 101.32 74.03
  Q 100.20 69.83 99.67 66.36
  C 98.87 61.11 98.62 53.86 94.20 50.30
  C 86.94 44.47 76.95 43.81 67.99 42.04
  Q 64.16 41.28 51.52 35.54
  C 50.53 35.10 50.01 34.14 48.93 33.72
  Z
  M 110.12 86.31
  Q 113.24 92.53 119.00 96.97
  Q 125.93 95.14 131.23 97.55
  C 140.84 101.91 142.32 115.08 132.98 121.14
  C 129.82 123.18 121.81 123.19 118.64 121.27
  Q 114.04 118.48 111.11 112.93
  Q 106.06 113.73 101.84 112.75
  L 96.38 110.02
  A 0.75 0.75 0.0 0 0 95.30 110.75
  Q 96.32 125.47 106.86 133.65
  C 122.80 146.01 147.53 139.70 154.14 120.54
  C 162.82 95.37 140.07 72.09 114.81 81.06
  Q 108.91 83.15 110.12 86.31
  Z"
/>
<path fill="#0063ff" d="
  M 48.93 33.72
  C 50.01 34.14 50.53 35.10 51.52 35.54
  Q 64.16 41.28 67.99 42.04
  C 76.95 43.81 86.94 44.47 94.20 50.30
  C 98.62 53.86 98.87 61.11 99.67 66.36
  Q 100.20 69.83 101.32 74.03
  C 102.60 78.81 103.09 83.89 105.23 88.08
  C 107.80 93.13 112.88 100.82 118.56 102.66
  Q 119.04 102.82 119.46 102.54
  C 129.94 95.45 140.79 107.93 132.01 116.89
  Q 130.29 118.65 127.83 118.92
  Q 117.84 120.03 116.09 109.42
  Q 116.00 108.90 115.47 108.85
  C 105.82 108.00 99.34 106.36 92.90 100.02
  A 0.94 0.94 0.0 0 1 93.73 98.42
  Q 98.12 99.23 100.75 95.79
  A 1.24 1.21 -31.0 0 0 100.99 94.88
  C 100.67 92.38 99.42 91.00 96.73 91.15
  C 85.43 91.77 71.54 89.39 64.34 80.07
  Q 62.91 78.22 65.22 78.62
  C 67.83 79.08 95.16 84.35 91.58 76.96
  C 89.43 72.50 77.50 74.10 73.42 73.55
  C 64.95 72.41 57.57 72.10 52.20 64.33
  A 0.50 0.50 0.0 0 1 52.77 63.57
  C 61.12 66.45 70.10 67.06 78.81 68.24
  C 86.94 69.35 87.40 60.71 82.76 60.93
  Q 65.75 61.75 50.27 55.12
  C 46.03 53.30 38.96 50.48 39.02 44.91
  A 0.47 0.46 11.8 0 1 39.67 44.49
  Q 54.34 50.86 70.25 52.27
  C 73.36 52.55 74.14 47.99 70.36 47.02
  C 56.06 43.36 30.27 40.61 27.80 21.92
  A 0.31 0.30 14.9 0 1 28.29 21.64
  Q 30.86 23.56 33.74 25.23
  C 38.61 28.06 43.72 31.64 48.93 33.72
  Z"
/>
<path fill="#ffffff" d="
  M 152.01 77.32
  C 151.75 75.15 155.63 72.30 156.79 69.41
  A 0.92 0.91 -56.9 0 0 156.59 68.43
  Q 150.90 62.77 143.13 60.61
  Q 142.57 60.46 142.18 60.88
  L 139.07 64.24
  A 1.31 1.30 63.3 0 0 138.73 65.28
  Q 138.96 67.35 137.88 69.13
  Q 137.62 69.56 137.13 69.52
  L 135.39 69.38
  A 0.57 0.56 -79.3 0 1 134.90 68.65
  Q 137.39 60.79 134.02 53.37
  A 0.93 0.92 80.2 0 1 134.94 52.06
  L 151.07 53.52
  A 0.73 0.72 -19.6 0 0 151.66 52.29
  C 146.39 46.95 137.57 51.24 131.87 48.39
  Q 124.52 44.71 117.52 40.44
  Q 116.86 40.04 116.83 39.76
  A 0.94 0.94 0.0 0 1 118.03 38.77
  C 123.77 40.43 130.63 42.71 136.63 42.84
  Q 142.60 42.98 137.12 40.63
  C 132.06 38.46 125.67 37.90 121.37 36.56
  C 113.88 34.24 104.56 31.09 102.79 22.97
  A 0.81 0.80 5.1 0 1 103.89 22.06
  C 119.68 28.70 138.14 32.69 152.75 34.50
  Q 162.36 35.69 171.90 37.42
  C 181.67 39.19 185.47 49.35 183.96 58.25
  C 182.87 64.61 172.71 72.76 166.82 76.50
  Q 166.37 76.79 166.07 76.35
  Q 164.51 74.00 161.88 72.84
  A 1.14 1.13 36.2 0 0 160.68 73.02
  L 154.51 78.30
  A 1.52 1.52 0.0 0 1 152.01 77.32
  Z"
/>
<path fill="#0063ff" d="
  M 101.84 112.75
  Q 100.73 114.06 99.15 114.19
  A 1.30 1.30 0.0 0 0 98.06 115.99
  L 101.78 124.87
  A 1.69 1.69 0.0 0 0 104.32 125.59
  L 112.87 119.49
  A 1.14 1.14 0.0 0 0 113.04 117.78
  Q 110.98 115.56 111.11 112.93
  Q 114.04 118.48 118.64 121.27
  C 121.81 123.19 129.82 123.18 132.98 121.14
  C 142.32 115.08 140.84 101.91 131.23 97.55
  Q 125.93 95.14 119.00 96.97
  L 123.55 94.59
  Q 123.99 94.37 123.92 93.88
  L 122.37 83.43
  A 1.35 1.35 0.0 0 0 120.78 82.30
  Q 115.58 83.30 110.12 86.31
  Q 108.91 83.15 114.81 81.06
  C 140.07 72.09 162.82 95.37 154.14 120.54
  C 147.53 139.70 122.80 146.01 106.86 133.65
  Q 96.32 125.47 95.30 110.75
  A 0.75 0.75 0.0 0 1 96.38 110.02
  L 101.84 112.75
  Z
  M 130.65 83.63
  Q 129.98 84.25 129.81 85.22
  Q 129.04 89.82 127.79 94.00
  A 1.02 1.01 -70.5 0 0 128.36 95.22
  L 134.31 97.81
  A 0.83 0.82 -60.1 0 0 135.30 97.54
  Q 138.13 93.74 140.97 89.96
  C 143.74 86.26 133.85 83.48 132.11 83.20
  Q 131.28 83.06 130.65 83.63
  Z
  M 152.10 101.16
  L 148.36 93.95
  A 1.79 1.79 0.0 0 0 145.95 93.18
  L 145.86 93.23
  A 11.09 3.80 -27.4 0 0 137.76 101.71
  L 139.65 105.35
  A 11.09 3.80 -27.4 0 0 151.25 103.62
  L 151.33 103.57
  A 1.79 1.79 0.0 0 0 152.10 101.16
  Z
  M 151.55 112.82
  L 141.67 111.31
  A 0.88 0.88 0.0 0 0 140.73 111.85
  L 138.55 117.30
  A 1.65 1.65 0.0 0 0 139.25 119.34
  L 147.61 124.18
  A 1.29 1.29 0.0 0 0 149.34 123.77
  Q 152.10 119.52 152.79 114.48
  A 1.48 1.48 0.0 0 0 151.55 112.82
  Z
  M 133.06 136.14
  L 141.17 132.15
  A 1.34 1.34 0.0 0 0 141.79 130.36
  L 141.72 130.23
  A 11.37 3.58 63.8 0 0 133.49 121.60
  L 129.40 123.62
  A 11.37 3.58 63.8 0 0 131.20 135.40
  L 131.27 135.53
  A 1.34 1.34 0.0 0 0 133.06 136.14
  Z
  M 111.41 133.73
  L 118.72 136.62
  A 1.95 1.95 0.0 0 0 121.25 135.52
  L 121.29 135.42
  A 10.96 3.20 -68.4 0 0 122.35 124.05
  L 117.36 122.08
  A 10.96 3.20 -68.4 0 0 110.35 131.09
  L 110.31 131.20
  A 1.95 1.95 0.0 0 0 111.41 133.73
  Z"
/>
<path fill="#ff0000" d="
  M 55.84 81.74
  Q 59.80 87.01 62.52 89.46
  Q 68.35 94.72 75.94 96.69
  A 0.62 0.61 -78.2 0 1 76.39 97.39
  L 75.09 104.81
  A 2.30 2.29 -85.0 0 0 77.35 107.50
  L 84.35 107.50
  A 0.66 0.66 0.0 0 1 85.01 108.17
  L 84.95 110.95
  Q 84.94 111.63 84.26 111.64
  C 80.31 111.69 74.49 111.40 75.56 116.48
  Q 77.00 123.31 79.52 129.83
  A 0.65 0.65 0.0 0 0 80.34 130.21
  L 88.11 127.56
  A 0.84 0.83 70.6 0 1 89.17 128.07
  L 90.28 131.14
  Q 90.45 131.61 90.05 131.92
  L 85.39 135.48
  A 2.60 2.60 0.0 0 0 85.02 139.26
  L 90.34 145.30
  Q 81.27 145.04 77.43 151.34
  A 1.75 1.75 0.0 0 0 77.74 153.54
  L 101.12 175.14
  A 1.19 1.18 -68.8 0 1 101.50 176.01
  L 101.50 189.73
  A 0.98 0.98 0.0 0 0 102.45 190.71
  Q 107.91 190.92 113.25 190.46
  C 118.23 190.03 122.33 187.42 126.63 185.04
  A 0.62 0.62 0.0 0 1 127.55 185.55
  L 127.84 190.17
  A 0.89 0.88 -1.7 0 0 128.73 191.00
  L 136.25 191.00
  A 1.00 1.00 0.0 0 0 137.25 190.00
  L 137.25 179.55
  A 0.78 0.78 0.0 0 1 138.00 178.77
  L 138.81 178.75
  A 0.56 0.56 0.0 0 1 139.40 179.31
  L 139.49 190.22
  A 0.82 0.82 0.0 0 0 140.81 190.87
  Q 143.77 188.62 147.03 186.55
  C 151.27 183.86 145.71 175.00 151.08 174.91
  Q 151.66 174.90 151.72 175.48
  L 152.22 180.16
  A 0.44 0.44 0.0 0 0 152.92 180.46
  L 159.45 175.38
  A 0.93 0.92 74.9 0 0 159.79 174.78
  L 160.72 167.38
  A 0.50 0.48 -17.4 0 1 160.90 167.05
  Q 168.35 161.06 174.68 153.89
  Q 175.04 153.47 174.51 153.32
  L 150.24 146.30
  Q 147.31 143.99 154.00 140.45
  Q 154.78 140.04 155.35 140.72
  L 158.84 144.94
  A 1.72 1.70 59.5 0 0 160.77 145.45
  C 165.42 143.66 170.59 137.15 171.56 132.28
  Q 171.66 131.76 171.20 131.52
  L 165.42 128.35
  A 2.32 2.15 27.4 0 1 164.38 125.45
  Q 164.56 125.07 165.43 125.00
  Q 165.93 124.96 166.52 125.21
  Q 169.38 126.43 172.40 127.00
  A 1.98 1.97 -72.1 0 0 174.55 125.89
  C 176.05 122.64 177.48 116.89 177.05 113.25
  C 176.66 109.98 170.69 110.66 167.53 110.82
  Q 166.86 110.86 166.82 110.20
  L 166.72 108.47
  A 0.66 0.65 -3.4 0 1 167.35 107.77
  L 175.81 107.42
  Q 176.25 107.40 176.41 106.99
  C 178.32 102.15 176.26 95.88 174.23 91.35
  Q 173.94 90.68 173.22 90.78
  Q 169.27 91.29 165.78 92.94
  A 1.66 1.66 0.0 0 1 163.99 90.18
  C 166.23 88.25 173.09 87.23 170.43 82.95
  Q 170.55 82.04 171.56 82.04
  Q 200.60 82.04 230.28 81.96
  A 0.24 0.24 0.0 0 1 230.48 82.34
  L 125.21 237.05
  A 0.37 0.37 0.0 0 1 124.61 237.05
  L 20.47 83.03
  Q 19.73 81.93 21.05 81.93
  L 55.84 81.74
  Z"
/>
<path fill="#010002" d="
  M 119.00 96.97
  Q 113.24 92.53 110.12 86.31
  Q 115.58 83.30 120.78 82.30
  A 1.35 1.35 0.0 0 1 122.37 83.43
  L 123.92 93.88
  Q 123.99 94.37 123.55 94.59
  L 119.00 96.97
  Z
  M 119.16 84.49
  L 113.32 86.61
  A 0.96 0.96 0.0 0 0 112.74 87.84
  L 112.97 88.47
  A 7.64 2.72 70.1 0 0 118.13 94.73
  L 120.67 93.81
  A 7.64 2.72 70.1 0 0 120.63 85.70
  L 120.39 85.06
  A 0.96 0.96 0.0 0 0 119.16 84.49
  Z"
/>
<path fill="#010002" d="
  M 130.65 83.63
  Q 131.28 83.06 132.11 83.20
  C 133.85 83.48 143.74 86.26 140.97 89.96
  Q 138.13 93.74 135.30 97.54
  A 0.83 0.82 -60.1 0 1 134.31 97.81
  L 128.36 95.22
  A 1.02 1.01 -70.5 0 1 127.79 94.00
  Q 129.04 89.82 129.81 85.22
  Q 129.98 84.25 130.65 83.63
  Z
  M 138.80 87.92
  Q 135.86 85.76 132.26 85.23
  A 0.67 0.67 0.0 0 0 131.50 85.77
  L 130.11 93.39
  A 0.69 0.68 18.5 0 0 130.48 94.12
  L 133.63 95.69
  A 0.74 0.74 0.0 0 0 134.56 95.46
  L 139.01 89.25
  A 0.96 0.96 0.0 0 0 138.80 87.92
  Z"
/>
<path fill="#ff0000" d="
  M 119.16 84.49
  A 0.96 0.96 0.0 0 1 120.39 85.06
  L 120.63 85.70
  A 7.64 2.72 70.1 0 1 120.67 93.81
  L 118.13 94.73
  A 7.64 2.72 70.1 0 1 112.97 88.47
  L 112.74 87.84
  A 0.96 0.96 0.0 0 1 113.32 86.61
  L 119.16 84.49
  Z"
/>
<path fill="#ff0000" d="
  M 138.80 87.92
  A 0.96 0.96 0.0 0 1 139.01 89.25
  L 134.56 95.46
  A 0.74 0.74 0.0 0 1 133.63 95.69
  L 130.48 94.12
  A 0.69 0.68 18.5 0 1 130.11 93.39
  L 131.50 85.77
  A 0.67 0.67 0.0 0 1 132.26 85.23
  Q 135.86 85.76 138.80 87.92
  Z"
/>
<path fill="#010002" d="
  M 152.10 101.16
  A 1.79 1.79 0.0 0 1 151.33 103.57
  L 151.25 103.62
  A 11.09 3.80 -27.4 0 1 139.65 105.35
  L 137.76 101.71
  A 11.09 3.80 -27.4 0 1 145.86 93.23
  L 145.95 93.18
  A 1.79 1.79 0.0 0 1 148.36 93.95
  L 152.10 101.16
  Z
  M 149.99 101.30
  L 147.57 96.03
  A 0.87 0.87 0.0 0 0 146.42 95.60
  L 146.27 95.67
  A 8.21 2.66 -24.6 0 0 139.92 101.50
  L 140.84 103.52
  A 8.21 2.66 -24.6 0 0 149.41 102.52
  L 149.56 102.46
  A 0.87 0.87 0.0 0 0 149.99 101.30
  Z"
/>
<path fill="#ff0000" d="
  M 149.99 101.30
  A 0.87 0.87 0.0 0 1 149.56 102.46
  L 149.41 102.52
  A 8.21 2.66 -24.6 0 1 140.84 103.52
  L 139.92 101.50
  A 8.21 2.66 -24.6 0 1 146.27 95.67
  L 146.42 95.60
  A 0.87 0.87 0.0 0 1 147.57 96.03
  L 149.99 101.30
  Z"
/>
<path fill="#010002" d="
  M 151.55 112.82
  A 1.48 1.48 0.0 0 1 152.79 114.48
  Q 152.10 119.52 149.34 123.77
  A 1.29 1.29 0.0 0 1 147.61 124.18
  L 139.25 119.34
  A 1.65 1.65 0.0 0 1 138.55 117.30
  L 140.73 111.85
  A 0.88 0.88 0.0 0 1 141.67 111.31
  L 151.55 112.82
  Z
  M 148.95 121.08
  L 150.70 116.18
  A 1.04 1.04 0.0 0 0 150.07 114.85
  L 149.91 114.79
  A 7.89 2.38 19.6 0 0 141.68 114.39
  L 140.83 116.76
  A 7.89 2.38 19.6 0 0 147.47 121.65
  L 147.63 121.71
  A 1.04 1.04 0.0 0 0 148.95 121.08
  Z"
/>
<path fill="#010002" d="
  M 101.84 112.75
  Q 106.06 113.73 111.11 112.93
  Q 110.98 115.56 113.04 117.78
  A 1.14 1.14 0.0 0 1 112.87 119.49
  L 104.32 125.59
  A 1.69 1.69 0.0 0 1 101.78 124.87
  L 98.06 115.99
  A 1.30 1.30 0.0 0 1 99.15 114.19
  Q 100.73 114.06 101.84 112.75
  Z
  M 100.37 117.35
  L 102.43 122.34
  A 1.34 1.34 0.0 0 0 104.18 123.07
  L 104.47 122.95
  A 7.79 3.05 -22.5 0 0 110.50 117.15
  L 109.74 115.32
  A 7.79 3.05 -22.5 0 0 101.38 115.48
  L 101.09 115.60
  A 1.34 1.34 0.0 0 0 100.37 117.35
  Z"
/>
<path fill="#ff0000" d="
  M 148.95 121.08
  A 1.04 1.04 0.0 0 1 147.63 121.71
  L 147.47 121.65
  A 7.89 2.38 19.6 0 1 140.83 116.76
  L 141.68 114.39
  A 7.89 2.38 19.6 0 1 149.91 114.79
  L 150.07 114.85
  A 1.04 1.04 0.0 0 1 150.70 116.18
  L 148.95 121.08
  Z"
/>
<path fill="#ff0000" d="
  M 100.37 117.35
  A 1.34 1.34 0.0 0 1 101.09 115.60
  L 101.38 115.48
  A 7.79 3.05 -22.5 0 1 109.74 115.32
  L 110.50 117.15
  A 7.79 3.05 -22.5 0 1 104.47 122.95
  L 104.18 123.07
  A 1.34 1.34 0.0 0 1 102.43 122.34
  L 100.37 117.35
  Z"
/>
<path fill="#010002" d="
  M 133.06 136.14
  A 1.34 1.34 0.0 0 1 131.27 135.53
  L 131.20 135.40
  A 11.37 3.58 63.8 0 1 129.40 123.62
  L 133.49 121.60
  A 11.37 3.58 63.8 0 1 141.72 130.23
  L 141.79 130.36
  A 1.34 1.34 0.0 0 1 141.17 132.15
  L 133.06 136.14
  Z
  M 134.12 133.74
  L 138.40 131.75
  A 1.53 1.53 0.0 0 0 139.14 129.71
  L 139.03 129.47
  A 7.72 3.53 65.0 0 0 132.56 123.96
  L 131.91 124.27
  A 7.72 3.53 65.0 0 0 131.98 132.76
  L 132.09 133.00
  A 1.53 1.53 0.0 0 0 134.12 133.74
  Z"
/>
<path fill="#010002" d="
  M 111.41 133.73
  A 1.95 1.95 0.0 0 1 110.31 131.20
  L 110.35 131.09
  A 10.96 3.20 -68.4 0 1 117.36 122.08
  L 122.35 124.05
  A 10.96 3.20 -68.4 0 1 121.29 135.42
  L 121.25 135.52
  A 1.95 1.95 0.0 0 1 118.72 136.62
  L 111.41 133.73
  Z
  M 113.18 132.56
  L 118.43 134.44
  A 1.20 1.20 0.0 0 0 119.97 133.72
  L 120.01 133.59
  A 8.12 2.84 -70.3 0 0 120.08 124.98
  L 117.91 124.21
  A 8.12 2.84 -70.3 0 0 112.50 130.90
  L 112.45 131.03
  A 1.20 1.20 0.0 0 0 113.18 132.56
  Z"
/>
<path fill="#ff0000" d="
  M 134.12 133.74
  A 1.53 1.53 0.0 0 1 132.09 133.00
  L 131.98 132.76
  A 7.72 3.53 65.0 0 1 131.91 124.27
  L 132.56 123.96
  A 7.72 3.53 65.0 0 1 139.03 129.47
  L 139.14 129.71
  A 1.53 1.53 0.0 0 1 138.40 131.75
  L 134.12 133.74
  Z"
/>
<path fill="#ff0000" d="
  M 113.18 132.56
  A 1.20 1.20 0.0 0 1 112.45 131.03
  L 112.50 130.90
  A 8.12 2.84 -70.3 0 1 117.91 124.21
  L 120.08 124.98
  A 8.12 2.84 -70.3 0 1 120.01 133.59
  L 119.97 133.72
  A 1.20 1.20 0.0 0 1 118.43 134.44
  L 113.18 132.56
  Z"
/>
<path fill="#010002" d="
  M 104.51 144.89
  A 0.52 0.52 0.0 0 1 104.29 145.84
  L 100.02 146.48
  A 0.30 0.29 10.9 0 1 99.72 146.04
  Q 101.57 142.91 104.51 144.89
  Z"
/>
<path fill="#010002" d="
  M 90.34 145.30
  Q 91.24 145.69 91.46 146.56
  Q 91.61 147.15 91.00 147.21
  C 86.38 147.64 81.03 147.70 79.57 152.00
  Q 79.41 152.46 79.77 152.80
  L 102.77 174.40
  Q 103.14 174.74 103.13 175.25
  L 102.94 188.53
  Q 102.94 189.13 103.53 189.12
  L 112.96 188.94
  A 0.73 0.72 85.7 0 0 113.66 188.12
  C 113.14 184.08 113.57 178.74 117.52 176.60
  C 121.41 174.49 127.34 176.00 128.65 180.82
  Q 129.40 183.58 129.22 188.68
  A 0.48 0.48 0.0 0 0 129.68 189.18
  L 135.11 189.42
  A 0.53 0.53 0.0 0 0 135.67 188.89
  L 135.79 178.13
  A 0.83 0.83 0.0 0 1 136.33 177.35
  Q 138.41 176.57 140.53 177.41
  A 0.74 0.73 11.4 0 1 140.99 178.09
  L 141.00 188.07
  A 0.51 0.51 0.0 0 0 141.83 188.46
  L 146.07 185.00
  Q 146.48 184.67 146.49 184.13
  L 146.53 176.49
  A 1.17 1.17 0.0 0 1 146.93 175.61
  Q 149.23 173.58 152.11 172.54
  Q 153.30 172.11 153.42 173.37
  L 153.76 177.08
  Q 153.84 177.96 154.54 177.43
  L 157.89 174.90
  A 0.66 0.65 -17.2 0 0 158.14 174.43
  L 158.51 167.78
  Q 158.53 167.38 158.83 167.11
  L 171.76 155.24
  A 0.68 0.68 0.0 0 0 171.42 154.07
  L 169.41 153.73
  Q 168.95 153.66 168.84 154.11
  L 168.50 155.48
  Q 168.37 155.99 167.88 156.19
  L 136.98 168.21
  Q 136.43 168.42 135.86 168.26
  L 83.84 153.41
  A 0.70 0.69 -64.2 0 1 83.47 152.33
  L 84.11 151.45
  Q 84.43 151.01 84.97 151.16
  L 135.83 165.35
  Q 136.35 165.49 136.85 165.30
  L 167.01 153.77
  A 0.43 0.43 0.0 0 0 166.97 152.95
  C 163.24 151.90 151.82 149.71 150.24 146.30
  L 174.51 153.32
  Q 175.04 153.47 174.68 153.89
  Q 168.35 161.06 160.90 167.05
  A 0.50 0.48 -17.4 0 0 160.72 167.38
  L 159.79 174.78
  A 0.93 0.92 74.9 0 1 159.45 175.38
  L 152.92 180.46
  A 0.44 0.44 0.0 0 1 152.22 180.16
  L 151.72 175.48
  Q 151.66 174.90 151.08 174.91
  C 145.71 175.00 151.27 183.86 147.03 186.55
  Q 143.77 188.62 140.81 190.87
  A 0.82 0.82 0.0 0 1 139.49 190.22
  L 139.40 179.31
  A 0.56 0.56 0.0 0 0 138.81 178.75
  L 138.00 178.77
  A 0.78 0.78 0.0 0 0 137.25 179.55
  L 137.25 190.00
  A 1.00 1.00 0.0 0 1 136.25 191.00
  L 128.73 191.00
  A 0.89 0.88 -1.7 0 1 127.84 190.17
  L 127.55 185.55
  A 0.62 0.62 0.0 0 0 126.63 185.04
  C 122.33 187.42 118.23 190.03 113.25 190.46
  Q 107.91 190.92 102.45 190.71
  A 0.98 0.98 0.0 0 1 101.50 189.73
  L 101.50 176.01
  A 1.19 1.18 -68.8 0 0 101.12 175.14
  L 77.74 153.54
  A 1.75 1.75 0.0 0 1 77.43 151.34
  Q 81.27 145.04 90.34 145.30
  Z
  M 125.50 183.71
  C 127.95 177.53 114.82 176.21 116.90 187.92
  Q 116.99 188.39 117.42 188.18
  L 124.83 184.44
  Q 125.30 184.20 125.50 183.71
  Z"
/>
<path fill="#010002" d="
  M 140.69 172.01
  Q 147.43 169.74 153.65 166.21
  A 0.91 0.91 0.0 0 1 155.01 166.90
  Q 155.10 167.82 154.59 168.54
  Q 154.30 168.95 153.84 169.15
  L 139.21 175.42
  Q 138.88 175.56 138.53 175.49
  L 99.36 167.32
  A 0.61 0.60 -14.8 0 1 99.04 167.14
  L 92.58 160.38
  A 0.62 0.62 0.0 0 1 93.09 159.34
  C 95.13 159.57 98.28 163.32 99.95 164.68
  Q 100.33 164.99 100.82 165.07
  C 112.75 166.92 124.48 170.11 136.36 172.29
  Q 138.62 172.70 140.69 172.01
  Z"
/>
<path fill="#0063ff" d="
  M 116.90 187.92
  C 114.82 176.21 127.95 177.53 125.50 183.71
  Q 125.30 184.20 124.83 184.44
  L 117.42 188.18
  Q 116.99 188.39 116.90 187.92
  Z"
/>
</svg>
